<svg width="32" height="32" viewBox="0 0 32 32" fill="none" xmlns="http://www.w3.org/2000/svg">
<g clip-path="url(#clip0_344_24)">
<path d="M15.9767 -0.0196513C16.0403 -0.0195166 16.1039 -0.0193819 16.1695 -0.0192431C17.0825 -0.0161387 17.9783 -0.000457689 18.8751 0.18738C18.936 0.199797 18.997 0.212215 19.0597 0.225008C21.5008 0.735641 23.7782 1.71225 25.7501 3.24988C25.8054 3.29194 25.8607 3.33399 25.9176 3.37732C26.892 4.13379 27.8052 5.02749 28.5626 5.99988C28.6343 6.08762 28.6343 6.08762 28.7074 6.17713C30.8717 8.87988 32.0275 12.3486 32.0198 15.7953C32.0197 15.9791 32.0211 16.1627 32.0227 16.3464C32.0255 17.1823 31.9502 17.9883 31.8126 18.8124C31.795 18.919 31.795 18.919 31.777 19.0277C31.3379 21.4722 30.2765 23.7961 28.7501 25.7499C28.7027 25.8106 28.6552 25.8714 28.6063 25.934C27.8354 26.8952 26.9729 27.8047 26.0001 28.5624C25.9416 28.6102 25.8831 28.6579 25.8229 28.7072C23.8258 30.3063 21.3779 31.3382 18.8751 31.8124C18.8245 31.8226 18.7739 31.8328 18.7218 31.8434C16.8442 32.2103 14.6791 32.1419 12.8126 31.7499C12.7174 31.7303 12.7174 31.7303 12.6203 31.7103C10.2988 31.217 8.11984 30.2106 6.25012 28.7499C6.18937 28.7024 6.12863 28.655 6.06604 28.6061C5.10481 27.8352 4.19527 26.9726 3.43762 25.9999C3.36596 25.9121 3.36596 25.9121 3.29284 25.8226C1.69366 23.8256 0.661806 21.3777 0.187619 18.8749C0.177387 18.8243 0.167155 18.7737 0.156613 18.7216C-0.185237 16.9724 -0.177679 14.869 0.187619 13.1249C0.200036 13.064 0.212454 13.003 0.225247 12.9402C1.00276 9.22333 2.97466 5.78147 6.00012 3.43738C6.06216 3.38751 6.12419 3.33764 6.18811 3.28626C6.70313 2.87536 7.24458 2.52051 7.81262 2.18738C7.8633 2.15755 7.91397 2.12772 7.96618 2.09699C10.4273 0.663808 13.1403 -0.0304517 15.9767 -0.0196513ZM20.004 7.72254C19.8771 8.01371 19.8683 8.25963 19.8712 8.578C19.8718 8.65696 19.8723 8.73591 19.8729 8.81726C19.8736 8.87753 19.8744 8.93779 19.8751 8.99988C19.8122 9.00584 19.7493 9.0118 19.6844 9.01795C18.9029 9.13141 18.1486 9.75094 17.6685 10.352C16.938 11.3309 16.6929 12.4513 16.8392 13.6566C17.0433 14.6755 17.6239 15.5719 18.4503 16.1969C19.184 16.6816 19.9145 16.9164 20.7853 16.996C21.5201 17.0652 22.0629 17.2358 22.5626 17.8124C22.9192 18.3716 23.0224 18.9491 22.9088 19.6034C22.7552 20.1891 22.4008 20.6381 21.8778 20.9471C21.3072 21.235 20.7188 21.2394 20.111 21.0687C19.886 20.9794 19.7149 20.8582 19.5328 20.7003C19.4415 20.6119 19.4415 20.6119 19.3126 20.6249C19.2951 20.5891 19.2777 20.5533 19.2596 20.5165C19.2136 20.4259 19.1651 20.3365 19.1136 20.2489C18.9044 19.8761 18.8165 19.5261 18.7604 19.1068C18.7097 18.7654 18.5958 18.5128 18.3329 18.2836C18.068 18.1357 17.8724 18.0855 17.5626 18.1249C17.2079 18.2526 16.9814 18.4747 16.8126 18.8124C16.7298 19.8647 17.038 20.8118 17.6798 21.6483C17.764 21.7462 17.8499 21.8427 17.9376 21.9374C17.9777 21.9809 18.0179 22.0244 18.0592 22.0692C18.5265 22.5277 19.2167 22.9272 19.8751 22.9999C19.8729 23.058 19.8708 23.1161 19.8685 23.1759C19.8566 23.7202 19.8494 24.0663 20.215 24.4882C20.4315 24.673 20.5439 24.7405 20.8282 24.7733C21.2098 24.7352 21.4599 24.6158 21.715 24.328C21.9022 23.9543 21.8653 23.4711 21.8751 23.0624C21.9258 23.0449 21.9765 23.0274 22.0287 23.0094C23.196 22.5868 24.081 21.8761 24.6168 20.7423C25.0521 19.6362 25.0638 18.5009 24.5934 17.4054C24.0439 16.3256 23.2316 15.6061 22.0961 15.194C21.7224 15.0771 21.3528 15.0386 20.965 15.0038C20.2641 14.9384 19.7385 14.785 19.2501 14.2499C18.8387 13.718 18.7495 13.1622 18.8126 12.4999C18.9073 12.1115 19.0426 11.7988 19.3126 11.4999C19.3126 11.4586 19.3126 11.4174 19.3126 11.3749C19.3629 11.3517 19.3629 11.3517 19.4142 11.328C19.5697 11.2517 19.5697 11.2517 19.7189 11.1288C20.1628 10.8321 20.7299 10.7671 21.2491 10.8317C21.8576 10.9712 22.3418 11.2915 22.6876 11.8124C22.8713 12.1788 22.9294 12.5222 22.9777 12.9231C23.0284 13.2672 23.1289 13.44 23.3751 13.6874C23.6515 13.8677 23.8597 13.91 24.1876 13.8749C24.5163 13.7566 24.6745 13.5875 24.8751 13.3124C25.1149 12.5929 24.829 11.7063 24.5196 11.0428C23.971 10.0294 23.1525 9.45462 22.1251 8.99988C22.0422 8.97755 21.9589 8.95632 21.8751 8.93738C21.8735 8.87027 21.8719 8.80316 21.8702 8.73401C21.866 8.06732 21.866 8.06732 21.5626 7.49988C21.0106 7.10266 20.4181 7.17493 20.004 7.72254ZM9.00012 9.81238C8.93679 9.86688 8.93679 9.86688 8.87219 9.92249C7.68464 11.0174 7.14008 12.7686 7.05036 14.3395C7.0453 14.5561 7.04365 14.7723 7.04382 14.9889C7.04355 15.0681 7.04328 15.1473 7.04301 15.2288C7.04265 15.3952 7.04256 15.5615 7.04289 15.7278C7.04318 15.8956 7.04275 16.0634 7.04161 16.2312C7.02872 17.9647 7.02872 17.9647 7.42199 19.6444C7.43804 19.6902 7.45409 19.736 7.47062 19.7831C7.93461 21.0666 8.72218 22.2068 9.93762 22.8749C10.8786 23.2787 11.7653 23.3788 12.7501 23.0624C13.2418 22.8625 13.6651 22.6002 14.0626 22.2499C14.1308 22.1905 14.1308 22.1905 14.2003 22.13C14.9268 21.453 15.3546 20.6096 15.6876 19.6874C15.7123 19.6211 15.7369 19.5548 15.7623 19.4865C15.86 19.1484 15.8007 18.857 15.6525 18.5428C15.4341 18.3021 15.2015 18.1403 14.8697 18.1149C14.5252 18.1419 14.265 18.2818 14.0319 18.5411C13.906 18.7365 13.837 18.9458 13.7618 19.1639C13.4709 19.9687 13.047 20.7344 12.2501 21.1249C11.783 21.3 11.3562 21.304 10.8929 21.13C10.1603 20.7831 9.65666 20.0326 9.38421 19.2863C9.06326 18.2824 9.02301 17.2857 9.03003 16.238C9.03137 16.0002 9.03003 15.7626 9.02844 15.5248C9.02666 13.979 9.17762 12.5128 10.2501 11.3124C10.6096 10.9705 11.0194 10.7501 11.5197 10.7225C12.0704 10.7462 12.5375 10.9664 12.9301 11.3478C13.3709 11.8536 13.6289 12.4208 13.8371 13.0511C13.9747 13.4449 14.152 13.6097 14.5065 13.8324C14.8061 13.9397 15.1178 13.8453 15.3947 13.7147C15.6367 13.4952 15.7881 13.2705 15.827 12.9401C15.7606 11.6537 14.812 10.4297 13.9025 9.60144C12.3732 8.36934 10.4361 8.53511 9.00012 9.81238Z" fill="black"/>
</g>
<defs>
<clipPath id="clip0_344_24">
<rect width="32" height="32" fill="white"/>
</clipPath>
</defs>
</svg>
