<svg width="32" height="32" viewBox="0 0 32 32" fill="none" xmlns="http://www.w3.org/2000/svg">
<g clip-path="url(#clip0_343_18)">
<path d="M15.9766 -0.0195381C16.0402 -0.0194034 16.1038 -0.0192687 16.1693 -0.01913C17.0824 -0.0160255 17.9782 -0.000344485 18.875 0.187493C18.9359 0.19991 18.9968 0.212328 19.0596 0.225121C22.0835 0.85766 24.8328 2.22744 27.0625 4.37499C27.1243 4.43425 27.1243 4.43425 27.1874 4.49471C27.7804 5.06624 28.3266 5.64733 28.8125 6.31249C28.8661 6.38443 28.9198 6.45637 28.9734 6.52831C29.3508 7.04026 29.6857 7.57237 30 8.12499C30.0228 8.16448 30.0456 8.20397 30.069 8.24465C31.4194 10.6039 32.0298 13.2768 32.0195 15.9766C32.0194 16.0402 32.0193 16.1038 32.0191 16.1693C32.016 17.0824 32.0003 17.9782 31.8125 18.875C31.7939 18.9664 31.7939 18.9664 31.7749 19.0596C31.1423 22.0835 29.7725 24.8328 27.625 27.0625C27.5855 27.1037 27.546 27.1449 27.5053 27.1874C26.9337 27.7804 26.3527 28.3266 25.6875 28.8125C25.6156 28.8661 25.5436 28.9198 25.4717 28.9734C24.9598 29.3507 24.4284 29.6872 23.875 30C23.8308 30.0251 23.7866 30.0503 23.7411 30.0762C22.2951 30.8903 20.7219 31.4371 19.0976 31.7695C19.0527 31.7787 19.0078 31.7879 18.9615 31.7974C18.0443 31.9718 17.1364 32.0218 16.2045 32.0197C16.0208 32.0195 15.8372 32.021 15.6534 32.0226C14.8176 32.0254 14.0116 31.95 13.1875 31.8125C13.0809 31.7949 13.0809 31.7949 12.9721 31.7769C10.2679 31.2911 7.70231 30.0419 5.62499 28.25C5.57843 28.2104 5.53186 28.1707 5.48388 28.1299C4.63982 27.3917 3.84786 26.5948 3.18749 25.6875C3.13396 25.6156 3.08041 25.5438 3.02685 25.4719C2.64935 24.96 2.31289 24.4285 1.99999 23.875C1.97486 23.8308 1.94972 23.7866 1.92382 23.7411C1.10973 22.2951 0.56293 20.7219 0.230462 19.0976C0.221252 19.0527 0.212042 19.0078 0.202554 18.9615C0.0166875 17.9836 -0.0233196 17.0165 -0.0195381 16.0234C-0.0194034 15.9598 -0.0192687 15.8962 -0.01913 15.8306C-0.0160255 14.9176 -0.000344485 14.0218 0.187493 13.125C0.19991 13.0641 0.212328 13.0031 0.225121 12.9404C0.85766 9.91649 2.22744 7.16723 4.37499 4.93749C4.4145 4.89628 4.45401 4.85507 4.49471 4.81262C5.06624 4.2196 5.64733 3.67336 6.31249 3.18749C6.38443 3.13386 6.45637 3.08023 6.52831 3.0266C7.04017 2.64926 7.57158 2.31283 8.12499 1.99999C8.16919 1.97486 8.21339 1.94972 8.25893 1.92382C9.7049 1.10973 11.2781 0.56293 12.9023 0.230462C12.9473 0.221252 12.9922 0.212042 13.0385 0.202554C14.0164 0.0166875 14.9835 -0.0233196 15.9766 -0.0195381ZM14.875 7.24999C14.8293 7.2617 14.7837 7.2734 14.7366 7.28545C12.7744 7.80829 11.0946 9.01787 10.0399 10.7661C9.65059 11.4411 9.35881 12.1327 9.12499 12.875C9.04039 12.8764 9.04039 12.8764 8.95408 12.8778C8.74311 12.8816 8.53218 12.8862 8.32124 12.8914C8.23026 12.8935 8.13928 12.8952 8.04829 12.8966C7.91684 12.8988 7.78546 12.902 7.65405 12.9055C7.57517 12.9071 7.49629 12.9088 7.41502 12.9105C7.14886 12.9421 6.98511 12.9971 6.74999 13.125C6.53875 13.4003 6.60195 13.7907 6.60156 14.1211C6.60003 14.1889 6.59849 14.2567 6.59692 14.3265C6.59289 14.7195 6.59289 14.7195 6.74365 15.0745C6.96302 15.2632 7.09562 15.2574 7.38134 15.2561C7.45707 15.2559 7.53281 15.2557 7.61083 15.2555C7.69027 15.255 7.76971 15.2544 7.85156 15.2539C7.97144 15.2535 7.97144 15.2535 8.09374 15.253C8.29166 15.2523 8.48958 15.2512 8.68749 15.25C8.68749 15.6006 8.68749 15.9512 8.68749 16.3125C8.5693 16.3096 8.45111 16.3067 8.32934 16.3037C8.17399 16.3014 8.01863 16.2991 7.86327 16.2969C7.74647 16.2937 7.74647 16.2937 7.62731 16.2905C7.55218 16.2897 7.47706 16.2889 7.39965 16.2881C7.33059 16.2868 7.26153 16.2855 7.19038 16.2841C6.95669 16.3189 6.8552 16.3996 6.68749 16.5625C6.55577 16.8259 6.60512 17.1676 6.60156 17.457C6.59922 17.5284 6.59688 17.5997 6.59448 17.6732C6.57475 18.0986 6.57475 18.0986 6.7749 18.4519C7.03233 18.627 7.20837 18.6334 7.5122 18.6311C7.55642 18.631 7.60063 18.6309 7.64619 18.6308C7.78756 18.6305 7.92893 18.6297 8.07031 18.6289C8.16609 18.6286 8.26187 18.6283 8.35766 18.628C8.59261 18.6274 8.82755 18.6263 9.06249 18.625C9.07163 18.6928 9.08077 18.7606 9.09019 18.8305C9.34391 20.522 10.5856 22.3483 11.9222 23.3581C13.0794 24.2011 14.3981 24.7214 15.8125 24.9375C15.9221 24.9545 15.9221 24.9545 16.0339 24.9719C17.8149 25.1847 19.6515 24.9098 21.3008 24.2187C21.3631 24.1932 21.3631 24.1932 21.4266 24.1672C21.6895 24.051 21.8591 23.9402 22 23.6875C22.0718 23.2208 21.8877 22.8523 21.7031 22.4297C21.6754 22.3635 21.6477 22.2974 21.6191 22.2292C21.3807 21.6592 21.3807 21.6592 20.9883 21.1914C20.5068 21.0095 19.8735 21.2769 19.3984 21.4023C17.6364 21.8523 15.796 22.0094 14.1601 21.0625C13.286 20.5032 12.7621 19.6615 12.4375 18.6875C12.4869 18.6871 12.5363 18.6868 12.5872 18.6864C13.0535 18.6828 13.5197 18.6783 13.9859 18.6728C14.2256 18.67 14.4652 18.6675 14.7049 18.6658C14.9363 18.6642 15.1677 18.6617 15.3991 18.6585C15.4873 18.6575 15.5755 18.6568 15.6637 18.6564C15.7874 18.6558 15.9111 18.6539 16.0348 18.652C16.1052 18.6513 16.1756 18.6506 16.2481 18.6499C16.4617 18.6218 16.5782 18.5658 16.75 18.4375C16.9479 18.1407 16.898 17.8256 16.8984 17.4766C16.9 17.4055 16.9015 17.3344 16.9031 17.2612C16.9077 16.8555 16.9077 16.8555 16.7602 16.4858C16.52 16.2889 16.3091 16.3049 16.0089 16.3054C15.9655 16.3054 15.9222 16.3054 15.8776 16.3054C15.7346 16.3054 15.5915 16.3059 15.4485 16.3064C15.3493 16.3065 15.25 16.3066 15.1508 16.3067C14.8897 16.3069 14.6286 16.3075 14.3676 16.3082C14.1011 16.3088 13.8347 16.3091 13.5682 16.3094C13.0455 16.3101 12.5227 16.3112 12 16.3125C12 15.9619 12 15.6112 12 15.25C12.1347 15.2513 12.2694 15.2526 12.4081 15.254C12.8534 15.2581 13.2987 15.2609 13.744 15.2629C14.0139 15.2643 14.2839 15.266 14.5538 15.2689C14.8144 15.2716 15.0749 15.2731 15.3355 15.2737C15.4349 15.2742 15.5342 15.2751 15.6336 15.2764C15.7729 15.2782 15.9121 15.2785 16.0514 15.2784C16.1307 15.2789 16.2099 15.2795 16.2916 15.2801C16.5367 15.2447 16.6385 15.1726 16.8125 15C16.9403 14.7444 16.8865 14.4137 16.8867 14.1328C16.8875 14.0639 16.8882 13.995 16.889 13.9241C16.8892 13.8578 16.8893 13.7915 16.8894 13.7231C16.8897 13.6624 16.8899 13.6017 16.8902 13.5391C16.8742 13.3669 16.8448 13.2686 16.75 13.125C16.5284 12.9772 16.4366 12.9848 16.174 12.9858C16.0539 12.9858 16.0539 12.9858 15.9314 12.9858C15.844 12.9865 15.7566 12.9871 15.6692 12.9878C15.5798 12.988 15.4904 12.9882 15.4009 12.9883C15.1657 12.9888 14.9306 12.99 14.6954 12.9914C14.4553 12.9927 14.2153 12.9933 13.9752 12.9939C13.5043 12.9952 13.0334 12.9974 12.5625 13C12.6397 12.841 12.7174 12.6823 12.7954 12.5237C12.817 12.4792 12.8385 12.4346 12.8607 12.3888C13.3055 11.4881 13.9971 10.91 14.9375 10.5625C15.4504 10.4008 15.9605 10.2693 16.5 10.25C16.5661 10.2468 16.6323 10.2435 16.7004 10.2402C17.7989 10.2117 18.847 10.4412 19.9004 10.7344C20.4489 10.8863 20.4489 10.8863 21 10.8125C21.3542 10.5092 21.4993 10.0545 21.6758 9.63281C21.7072 9.56118 21.7385 9.48956 21.7709 9.41576C21.9995 8.88095 21.9995 8.88095 22 8.31249C21.6156 7.65885 20.5262 7.47664 19.8393 7.28936C18.2386 6.87423 16.4801 6.83778 14.875 7.24999Z" fill="black"/>
</g>
<defs>
<clipPath id="clip0_343_18">
<rect width="32" height="32" fill="white"/>
</clipPath>
</defs>
</svg>
