<svg width="64" height="64" viewBox="0 0 64 64" fill="none" xmlns="http://www.w3.org/2000/svg">
<path d="M32 0C49.6729 0.000257337 64 14.3269 64 32.001C63.9998 49.6737 49.6728 63.9997 32 64C14.3273 64 0.000200428 49.6738 0 32.001C0 14.3268 14.3272 0 32 0ZM35.6719 11.9014C29.649 11.9014 26.9336 14.5543 26.9336 19.6318V25.042H22.7227V31.9141H26.9336V52.0986H35.0273V31.8291H40.6748L41.2773 25.042H35.0273V21.1777C35.0274 19.5776 35.349 18.9443 36.8965 18.9443H41.2773V11.9014C41.2773 11.9014 36.6584 11.9014 35.6719 11.9014Z" fill="black"/>
</svg>
