<svg width="32" height="32" viewBox="0 0 32 32" fill="none" xmlns="http://www.w3.org/2000/svg">
<path d="M9.58838 8.5137C9.63468 8.51354 9.68097 8.51338 9.72867 8.51321C9.78015 8.51321 9.83162 8.51322 9.8831 8.51323C9.93771 8.51311 9.99231 8.51297 10.0469 8.51282C10.1972 8.51245 10.3475 8.51232 10.4978 8.51222C10.6598 8.51207 10.8218 8.51172 10.9838 8.5114C11.3751 8.51068 11.7665 8.51031 12.1578 8.50998C12.3421 8.50982 12.5264 8.50962 12.7107 8.50943C13.3235 8.50881 13.9362 8.50828 14.5489 8.50801C14.7079 8.50794 14.8669 8.50787 15.0259 8.5078C15.0852 8.50777 15.0852 8.50777 15.1457 8.50775C15.7858 8.50744 16.4259 8.50651 17.066 8.50532C17.7233 8.50411 18.3805 8.50345 19.0378 8.50333C19.4068 8.50325 19.7758 8.50293 20.1448 8.50199C20.4591 8.5012 20.7733 8.5009 21.0876 8.50126C21.2479 8.50142 21.4082 8.50136 21.5685 8.50064C21.7154 8.5 21.8623 8.50003 22.0092 8.5006C22.0622 8.50069 22.1151 8.50053 22.1681 8.50009C22.6789 8.49615 23.0852 8.61458 23.463 8.96694C23.8535 9.3736 23.9447 9.77898 23.9356 10.3216C23.9109 10.9516 23.4818 11.3583 23.0705 11.7869C22.9566 11.9061 22.8476 12.0288 22.7397 12.1534C22.6495 12.2565 22.5565 12.3568 22.4632 12.4571C22.3046 12.6281 22.1476 12.8004 21.9919 12.9741C21.8974 13.079 21.8021 13.183 21.7066 13.2869C21.5837 13.4208 21.4613 13.5551 21.3399 13.6904C21.2014 13.8447 21.0615 13.9976 20.9212 14.1503C20.8156 14.2654 20.7106 14.3811 20.6063 14.4973C20.4678 14.6517 20.3278 14.8047 20.1875 14.9573C20.0826 15.0716 19.9785 15.1865 19.875 15.302C19.7284 15.4654 19.5796 15.6267 19.4305 15.7878C19.2926 15.9369 19.1564 16.0874 19.0209 16.2386C18.9264 16.3434 18.8311 16.4475 18.7356 16.5514C18.6069 16.6916 18.4783 16.8321 18.3505 16.9732C18.3248 17.0016 18.2991 17.0299 18.2726 17.0592C18.2499 17.0853 18.2272 17.1114 18.2038 17.1382C18.1845 17.1572 18.1652 17.1762 18.1453 17.1957C18.0663 17.3325 18.0788 17.4627 18.0802 17.618C18.0801 17.6516 18.0799 17.6853 18.0798 17.72C18.0796 17.793 18.0796 17.866 18.0798 17.9391C18.0801 18.0547 18.0798 18.1703 18.0792 18.286C18.0777 18.6147 18.0777 18.9434 18.0778 19.2722C18.0778 19.4733 18.0771 19.6745 18.0759 19.8756C18.0756 19.9894 18.076 20.1032 18.0765 20.217C18.0761 20.287 18.0758 20.357 18.0753 20.427C18.0757 20.4585 18.0761 20.4901 18.0764 20.5226C18.0741 20.7206 18.0411 20.832 17.9103 20.9896C17.8396 21.0568 17.7703 21.1186 17.6949 21.1798C17.674 21.1971 17.6532 21.2144 17.6317 21.2321C17.4633 21.3709 17.2918 21.5059 17.1197 21.64C16.9535 21.7695 16.7897 21.9017 16.6266 22.0349C16.4241 22.2002 16.22 22.3631 16.0139 22.5238C15.8471 22.6543 15.6831 22.7879 15.5193 22.9221C14.7796 23.5269 14.7796 23.5269 14.3158 23.4837C14.1332 23.399 14.048 23.2897 13.949 23.117C13.9311 22.9996 13.9311 22.9996 13.9317 22.8711C13.9316 22.8473 13.9315 22.8235 13.9314 22.7989C13.9313 22.7197 13.9322 22.6405 13.933 22.5613C13.9331 22.5043 13.9332 22.4472 13.9331 22.3902C13.9332 22.2677 13.9337 22.1451 13.9345 22.0226C13.9358 21.8287 13.9358 21.6347 13.9357 21.4408C13.9354 20.9242 13.9366 20.4077 13.9388 19.8911C13.9403 19.5516 13.941 19.2121 13.9404 18.8726C13.9401 18.68 13.9409 18.4874 13.9426 18.2948C13.9434 18.1747 13.9431 18.0547 13.9426 17.9347C13.9425 17.8792 13.9429 17.8237 13.9438 17.7682C13.953 17.4141 13.953 17.4141 13.7889 17.1104C13.7453 17.0698 13.7009 17.0301 13.6556 16.9915C13.6185 16.952 13.5818 16.912 13.5458 16.8715C13.5106 16.8335 13.4753 16.7956 13.4401 16.7577C13.2815 16.5866 13.1245 16.4143 12.9688 16.2406C12.8744 16.1358 12.779 16.0317 12.6836 15.9278C12.5613 15.7948 12.4397 15.6612 12.3191 15.5266C12.1912 15.3841 12.0617 15.2431 11.9316 15.1025C11.7747 14.933 11.6192 14.7621 11.465 14.59C11.3705 14.4852 11.2752 14.3812 11.1797 14.2773C11.0296 14.1139 10.8808 13.9495 10.7327 13.7844C10.6377 13.6792 10.542 13.5747 10.4461 13.4703C10.296 13.307 10.1473 13.1425 9.9991 12.9774C9.90415 12.8722 9.80843 12.7677 9.71254 12.6634C9.56246 12.5 9.41367 12.3356 9.26551 12.1705C9.18768 12.0842 9.10938 11.9984 9.03079 11.9129C8.99629 11.8753 8.96183 11.8377 8.92741 11.8001C8.84794 11.7132 8.7681 11.6267 8.68724 11.5411C8.23897 11.06 8.0441 10.63 8.06527 9.97505C8.09473 9.51597 8.33383 9.16684 8.65801 8.85791C8.92531 8.63342 9.24224 8.51427 9.58838 8.5137Z" fill="black"/>
</svg>
