<svg width="32" height="32" viewBox="0 0 32 32" fill="none" xmlns="http://www.w3.org/2000/svg">
<g clip-path="url(#clip0_344_28)">
<path d="M15.9766 -0.0195381C16.0402 -0.0194034 16.1038 -0.0192687 16.1693 -0.01913C17.0824 -0.0160255 17.9782 -0.000344485 18.875 0.187493C18.9359 0.19991 18.9968 0.212328 19.0596 0.225121C22.0835 0.85766 24.8328 2.22744 27.0625 4.37499C27.1243 4.43425 27.1243 4.43425 27.1874 4.49471C27.7804 5.06624 28.3266 5.64733 28.8125 6.31249C28.8661 6.38443 28.9198 6.45637 28.9734 6.52831C29.3508 7.04026 29.6857 7.57237 30 8.12499C30.0228 8.16448 30.0456 8.20397 30.069 8.24465C31.4194 10.6039 32.0298 13.2768 32.0195 15.9766C32.0194 16.0402 32.0193 16.1038 32.0191 16.1693C32.016 17.0824 32.0003 17.9782 31.8125 18.875C31.7939 18.9664 31.7939 18.9664 31.7749 19.0596C31.1423 22.0835 29.7725 24.8328 27.625 27.0625C27.5855 27.1037 27.546 27.1449 27.5053 27.1874C26.9337 27.7804 26.3527 28.3266 25.6875 28.8125C25.6156 28.8661 25.5436 28.9198 25.4717 28.9734C24.9598 29.3507 24.4284 29.6872 23.875 30C23.8308 30.0251 23.7866 30.0503 23.7411 30.0762C22.2951 30.8903 20.7219 31.4371 19.0976 31.7695C19.0527 31.7787 19.0078 31.7879 18.9615 31.7974C18.0443 31.9718 17.1364 32.0218 16.2045 32.0197C16.0208 32.0195 15.8372 32.021 15.6534 32.0226C14.8176 32.0254 14.0116 31.95 13.1875 31.8125C13.0809 31.7949 13.0809 31.7949 12.9721 31.7769C10.2679 31.2911 7.70231 30.0419 5.62499 28.25C5.57843 28.2104 5.53186 28.1707 5.48388 28.1299C4.63982 27.3917 3.84786 26.5948 3.18749 25.6875C3.13396 25.6156 3.08041 25.5438 3.02685 25.4719C2.64935 24.96 2.31289 24.4285 1.99999 23.875C1.97486 23.8308 1.94972 23.7866 1.92382 23.7411C1.10973 22.2951 0.56293 20.7219 0.230462 19.0976C0.221252 19.0527 0.212042 19.0078 0.202554 18.9615C0.0166875 17.9836 -0.0233196 17.0165 -0.0195381 16.0234C-0.0194034 15.9598 -0.0192687 15.8962 -0.01913 15.8306C-0.0160255 14.9176 -0.000344485 14.0218 0.187493 13.125C0.19991 13.0641 0.212328 13.0031 0.225121 12.9404C0.85766 9.91649 2.22744 7.16723 4.37499 4.93749C4.4145 4.89628 4.45401 4.85507 4.49471 4.81262C5.06624 4.2196 5.64733 3.67336 6.31249 3.18749C6.38443 3.13386 6.45637 3.08023 6.52831 3.0266C7.04017 2.64926 7.57158 2.31283 8.12499 1.99999C8.16919 1.97486 8.21339 1.94972 8.25893 1.92382C9.7049 1.10973 11.2781 0.56293 12.9023 0.230462C12.9473 0.221252 12.9922 0.212042 13.0385 0.202554C14.0164 0.0166875 14.9835 -0.0233196 15.9766 -0.0195381ZM13.25 8.24999C13.2028 8.29149 13.1556 8.33298 13.1069 8.37573C12.0141 9.39152 11.5424 10.858 11.4375 12.3125C11.4299 12.5608 11.4302 12.8087 11.4314 13.0571C11.4315 13.1256 11.4316 13.1941 11.4317 13.2646C11.432 13.4811 11.4328 13.6976 11.4336 13.9141C11.4339 14.0618 11.4342 14.2095 11.4344 14.3572C11.4351 14.7173 11.4362 15.0774 11.4375 15.4375C11.3981 15.4365 11.3588 15.4355 11.3182 15.4345C11.1379 15.4306 10.9577 15.4282 10.7773 15.4258C10.7154 15.4242 10.6535 15.4226 10.5897 15.421C10.126 15.4164 9.82092 15.4647 9.45312 15.7656C9.1002 16.197 9.10036 16.5836 9.11327 17.1211C9.11714 17.3493 9.12101 17.5774 9.12499 17.8125C9.88812 17.8125 10.6512 17.8125 11.4375 17.8125C11.4372 18.2973 11.4357 18.7819 11.4314 19.2667C11.4303 19.4313 11.4298 19.5959 11.43 19.7606C11.4302 19.9983 11.4279 20.2359 11.4253 20.4736C11.4261 20.5827 11.4261 20.5827 11.427 20.6939C11.417 21.2666 11.2745 21.7848 10.8617 22.2024C10.4133 22.5786 9.93713 22.7345 9.37499 22.875C9.37499 23.6381 9.37499 24.4012 9.37499 25.1875C10.9473 25.1917 12.5195 25.1952 14.0918 25.1972C14.8218 25.1982 15.5519 25.1995 16.2819 25.2016C16.9183 25.2035 17.5546 25.2047 18.1909 25.2051C18.5278 25.2054 18.8647 25.206 19.2016 25.2073C19.5189 25.2086 19.8361 25.209 20.1533 25.2087C20.2696 25.2088 20.3859 25.2091 20.5022 25.2098C20.6613 25.2108 20.8204 25.2106 20.9796 25.21C21.0253 25.2106 21.071 25.2111 21.1181 25.2117C21.6512 25.2071 22.1207 25.001 22.5 24.625C22.781 24.2244 22.8833 23.8923 22.8811 23.4053C22.8809 23.3271 22.8807 23.249 22.8805 23.1684C22.88 23.0871 22.8794 23.0057 22.8789 22.9219C22.8785 22.7984 22.8785 22.7984 22.878 22.6724C22.8773 22.4691 22.8763 22.2658 22.875 22.0625C21.9698 22.0581 21.0645 22.0548 20.1593 22.0528C19.7388 22.0518 19.3183 22.0505 18.8979 22.0483C18.491 22.0463 18.0841 22.0452 17.6772 22.0447C17.5231 22.0444 17.369 22.0437 17.2149 22.0427C16.251 22.0365 15.3263 22.0908 14.375 22.25C14.4371 22.1713 14.4371 22.1713 14.5005 22.0909C15.2862 21.0928 15.3949 20.1975 15.3828 18.9609C15.3822 18.8494 15.3816 18.7378 15.3811 18.6262C15.3797 18.355 15.3776 18.0837 15.375 17.8125C15.4232 17.813 15.4714 17.8136 15.5211 17.8142C15.9772 17.8192 16.4332 17.823 16.8892 17.8254C17.1237 17.8267 17.3581 17.8285 17.5925 17.8314C17.819 17.8341 18.0455 17.8356 18.2721 17.8362C18.3582 17.8367 18.4443 17.8376 18.5304 17.8389C19.0261 17.8464 19.3924 17.8392 19.8125 17.5625C20.3974 16.9476 20.125 16.4207 20.125 15.4375C18.5575 15.4375 16.99 15.4375 15.375 15.4375C15.3801 14.8909 15.3853 14.3444 15.3906 13.7812C15.3916 13.6109 15.3926 13.4405 15.3936 13.265C15.4169 11.1356 15.4169 11.1356 16.0625 10.4375C16.5105 10.0205 17.0032 9.97277 17.5984 9.98534C18.3024 10.0335 18.7137 10.428 19.218 10.8935C19.5799 11.2269 19.8155 11.3916 20.3203 11.375C21.1665 11.2718 21.927 10.6396 22.625 10.1875C22.0272 8.83891 20.9875 7.77408 19.624 7.19116C17.5335 6.44963 14.9286 6.70976 13.25 8.24999Z" fill="black"/>
</g>
<defs>
<clipPath id="clip0_344_28">
<rect width="32" height="32" fill="white"/>
</clipPath>
</defs>
</svg>
