<svg width="60" height="60" viewBox="0 0 60 60" fill="none" xmlns="http://www.w3.org/2000/svg">
<g id="github" clip-path="url(#clip0_229_60)">
<path id="dark" d="M30 0C13.4325 0 0 13.4325 0 30C0 44.0575 9.68 55.82 22.73 59.075C22.59 58.67 22.5 58.2 22.5 57.6175V52.49C21.2825 52.49 19.2425 52.49 18.73 52.49C16.6775 52.49 14.8525 51.6075 13.9675 49.9675C12.985 48.145 12.815 45.3575 10.38 43.6525C9.6575 43.085 10.2075 42.4375 11.04 42.525C12.5775 42.96 13.8525 44.015 15.0525 45.58C16.2475 47.1475 16.81 47.5025 19.0425 47.5025C20.125 47.5025 21.745 47.44 23.27 47.2C24.09 45.1175 25.5075 43.2 27.24 42.295C17.25 41.2675 12.4825 36.2975 12.4825 29.55C12.4825 26.645 13.72 23.835 15.8225 21.4675C15.1325 19.1175 14.265 14.325 16.0875 12.5C20.5825 12.5 23.3 15.415 23.9525 16.2025C26.1925 15.435 28.6525 15 31.2375 15C33.8275 15 36.2975 15.435 38.5425 16.2075C39.1875 15.425 41.9075 12.5 46.4125 12.5C48.2425 14.3275 47.365 19.14 46.6675 21.485C48.7575 23.8475 49.9875 26.65 49.9875 29.55C49.9875 36.2925 45.2275 41.26 35.2525 42.2925C37.9975 43.725 40 47.75 40 50.7825V57.6175C40 57.8775 39.9425 58.065 39.9125 58.2875C51.6025 54.19 60 43.09 60 30C60 13.4325 46.5675 0 30 0Z" fill="black"/>
</g>
<defs>
<clipPath id="clip0_229_60">
<rect width="60" height="60" fill="white"/>
</clipPath>
</defs>
</svg>
