<svg width="32" height="32" viewBox="0 0 32 32" fill="none" xmlns="http://www.w3.org/2000/svg">
<g clip-path="url(#clip0_334_18)">
<path d="M31.6188 16.2994C31.6188 14.9884 31.5124 14.0317 31.2821 13.0396H16.3115V18.9569H25.0989C24.9218 20.4274 23.9651 22.642 21.8391 24.1301L21.8093 24.3282L26.5427 27.9952L26.8707 28.0279C29.8825 25.2463 31.6188 21.1537 31.6188 16.2994Z" fill="#4285F4"/>
<path d="M16.3114 31.8901C20.6165 31.8901 24.2307 30.4727 26.8706 28.0279L21.839 24.1301C20.4925 25.0691 18.6854 25.7246 16.3114 25.7246C12.0949 25.7246 8.51612 22.9432 7.24039 19.0986L7.0534 19.1145L2.13151 22.9236L2.06714 23.1025C4.68918 28.3112 10.0751 31.8901 16.3114 31.8901Z" fill="#34A853"/>
<path d="M7.24047 19.0987C6.90386 18.1066 6.70905 17.0435 6.70905 15.9451C6.70905 14.8466 6.90386 13.7837 7.22276 12.7915L7.21384 12.5803L2.23027 8.70996L2.06722 8.78752C0.986547 10.949 0.366455 13.3762 0.366455 15.9451C0.366455 18.5141 0.986547 20.9412 2.06722 23.1026L7.24047 19.0987Z" fill="#FBBC05"/>
<path d="M16.3114 6.16537C19.3055 6.16537 21.3252 7.45869 22.4768 8.53948L26.9768 4.14571C24.2131 1.57679 20.6165 0 16.3114 0C10.0751 0 4.68918 3.57875 2.06714 8.78742L7.22268 12.7915C8.51612 8.94693 12.0949 6.16537 16.3114 6.16537Z" fill="#EB4335"/>
</g>
<defs>
<clipPath id="clip0_334_18">
<rect width="32" height="32" fill="white"/>
</clipPath>
</defs>
</svg>
