<svg width="64" height="64" viewBox="0 0 64 64" fill="none" xmlns="http://www.w3.org/2000/svg">
<path d="M32.001 0C49.6738 0.000207673 64 14.3269 64 32.001C63.9998 49.6737 49.6737 63.9998 32.001 64C14.3281 64 0.000199453 49.6738 0 32.001C0 14.3268 14.3279 0 32.001 0ZM32.001 13.7676C27.0493 13.7676 26.4278 13.7892 24.4824 13.8779C22.543 13.9666 21.2169 14.2749 20.0566 14.7256C18.8582 15.1918 17.8421 15.8154 16.8281 16.8281C15.8153 17.8422 15.1919 18.8599 14.7256 20.0586C14.2749 21.2176 13.9666 22.5432 13.8779 24.4824C13.7892 26.4278 13.7686 27.0493 13.7686 32.001C13.7686 36.9511 13.7892 37.5722 13.8779 39.5176C13.9666 41.4579 14.275 42.7822 14.7256 43.9424C15.1919 45.141 15.8153 46.1578 16.8281 47.1719C17.8421 48.1858 18.8582 48.8094 20.0566 49.2744C21.2169 49.7251 22.543 50.0334 24.4824 50.1221C26.4278 50.2108 27.0493 50.2324 32.001 50.2324C36.951 50.2324 37.5722 50.2108 39.5176 50.1221C41.4579 50.0334 42.7822 49.725 43.9424 49.2744C45.141 48.8093 46.1578 48.1859 47.1719 47.1719C48.1847 46.1578 48.8081 45.141 49.2744 43.9424C49.725 42.7822 50.0334 41.4579 50.1221 39.5176C50.2108 37.5722 50.2305 36.9511 50.2305 32.001C50.2305 27.0493 50.2108 26.4278 50.1221 24.4824C50.0334 22.5432 49.7251 21.2176 49.2744 20.0586C48.8081 18.8599 48.1847 17.8422 47.1719 16.8281C46.1578 15.8153 45.141 15.1919 43.9424 14.7256C42.7822 14.275 41.4579 13.9666 39.5176 13.8779C37.5722 13.7892 36.951 13.7676 32.001 13.7676ZM32.001 17.0537C36.8681 17.0537 37.4448 17.0727 39.3672 17.1602C41.1436 17.2405 42.1104 17.5378 42.7529 17.7871C43.6037 18.1191 44.2111 18.5138 44.8486 19.1514C45.4862 19.7902 45.8823 20.3962 46.2119 21.2471C46.4624 21.8896 46.7595 22.8562 46.8398 24.6338C46.9273 26.5551 46.9463 27.1321 46.9463 32.001C46.9463 36.8681 46.9273 37.4449 46.8398 39.3672C46.7595 41.1448 46.4624 42.1104 46.2119 42.7529C45.8823 43.6038 45.4862 44.211 44.8486 44.8486C44.2111 45.4862 43.6037 45.8821 42.7529 46.2129C42.1104 46.4622 41.1436 46.7593 39.3672 46.8408C37.4448 46.9271 36.8681 46.9463 32.001 46.9463C27.1324 46.9463 26.5551 46.9271 24.6328 46.8408C22.8564 46.7593 21.8896 46.4622 21.2471 46.2129C20.3962 45.8821 19.7902 45.4862 19.1514 44.8486C18.5138 44.211 18.1179 43.6038 17.7871 42.7529C17.5378 42.1104 17.2405 41.1448 17.1602 39.3672C17.0727 37.4449 17.0537 36.8681 17.0537 32.001C17.0537 27.1321 17.0727 26.5551 17.1602 24.6338C17.2405 22.8562 17.5378 21.8896 17.7871 21.2471C18.1179 20.3962 18.5138 19.7901 19.1514 19.1514C19.7902 18.5138 20.3962 18.1191 21.2471 17.7871C21.8896 17.5378 22.8564 17.2405 24.6328 17.1602C26.5551 17.0727 27.1324 17.0537 32.001 17.0537ZM32.001 22.6377C26.83 22.6377 22.6377 26.83 22.6377 32.001C22.6379 37.1706 26.8301 41.3623 32.001 41.3623C37.1705 41.3621 41.3621 37.1705 41.3623 32.001C41.3623 26.8301 37.1706 22.6379 32.001 22.6377ZM32.001 25.9238C35.357 25.9241 38.0781 28.6437 38.0781 32.001C38.0779 35.3557 35.3569 38.0759 32.001 38.0762C28.6437 38.0762 25.924 35.3558 25.9238 32.001C25.9238 28.6435 28.6435 25.9238 32.001 25.9238ZM41.7324 20.0801C40.5242 20.0801 39.544 21.0605 39.5439 22.2676C39.5439 23.4758 40.5242 24.4561 41.7324 24.4561C42.9407 24.4561 43.9199 23.4758 43.9199 22.2676C43.9199 21.0605 42.9407 20.0801 41.7324 20.0801Z" fill="black"/>
</svg>
