<svg width="32" height="32" viewBox="0 0 32 32" fill="none" xmlns="http://www.w3.org/2000/svg">
<g clip-path="url(#clip0_344_26)">
<path d="M26.8001 4.24001C27.4311 4.82139 28.028 5.42948 28.5476 6.11355C28.5766 6.15124 28.6055 6.18894 28.6354 6.22777C29.1051 6.84139 29.5238 7.47342 29.903 8.14658C29.9283 8.19109 29.9536 8.23561 29.9797 8.28148C30.9026 9.91671 31.4973 11.7172 31.8004 13.568C31.8084 13.6134 31.8163 13.6589 31.8245 13.7057C32.0995 15.3358 32.0388 17.1669 31.7327 18.7861C31.7218 18.8455 31.7109 18.9048 31.6996 18.966C30.9957 22.6781 28.9442 26.2483 25.9047 28.5446C25.8625 28.5769 25.8204 28.6091 25.777 28.6424C24.9795 29.2504 24.1463 29.7672 23.2617 30.2388C23.2148 30.2642 23.1678 30.2896 23.1194 30.3157C21.6884 31.0777 20.0417 31.5343 18.4502 31.7975C18.3767 31.8105 18.3767 31.8105 18.3017 31.8238C16.6798 32.1031 14.8432 32.0343 13.2321 31.7297C13.1727 31.7188 13.1134 31.7079 13.0522 31.6966C9.34009 30.9928 5.76988 28.9412 3.4736 25.9017C3.44133 25.8596 3.40906 25.8174 3.37582 25.774C2.76785 24.9765 2.25103 24.1433 1.77941 23.2587C1.75402 23.2118 1.72863 23.1648 1.70248 23.1164C0.940529 21.6855 0.483872 20.0387 0.220755 18.4472C0.212052 18.3982 0.203349 18.3492 0.194382 18.2987C-0.470234 14.4393 0.611628 10.1751 2.82689 6.98801C3.75646 5.68227 4.83662 4.44279 6.11653 3.47061C6.15423 3.44165 6.19192 3.4127 6.23076 3.38286C6.84438 2.91315 7.4764 2.49445 8.14956 2.11526C8.19408 2.08994 8.2386 2.06462 8.28447 2.03853C9.9197 1.11564 11.7202 0.520897 13.571 0.217771C13.6164 0.209832 13.6619 0.201894 13.7087 0.193715C18.4058 -0.598755 23.3102 1.09712 26.8001 4.24001ZM11.1774 9.1975C11.0007 9.46321 10.9644 9.7083 10.9598 10.0232C11.0479 10.406 11.3586 10.706 11.6099 10.997C11.6764 11.0748 11.7428 11.1525 11.8093 11.2303C11.843 11.2696 11.8767 11.3089 11.9115 11.3494C12.0702 11.5348 12.2276 11.7213 12.385 11.9077C12.5742 12.1315 12.7635 12.355 12.9536 12.5779C13.3052 12.9906 13.6502 13.4067 13.9776 13.8391C13.8966 13.8367 13.8156 13.8343 13.7322 13.8319C12.8274 13.7752 12.8274 13.7752 12.039 14.1416C11.761 14.4602 11.7171 14.6804 11.7224 15.0901C11.7503 15.3452 11.8417 15.4802 12.0123 15.6688C12.4249 15.9935 12.7512 16.0163 13.2652 16.0142C13.3367 16.0141 13.3367 16.0141 13.4096 16.0139C13.5608 16.0136 13.712 16.0127 13.8632 16.0118C13.9661 16.0115 14.0691 16.0112 14.172 16.0109C14.4234 16.0102 14.6749 16.0089 14.9263 16.0076C14.9263 16.4996 14.9263 16.9916 14.9263 17.4985C14.6704 17.4938 14.6704 17.4938 14.4093 17.489C14.2429 17.4869 14.0765 17.4852 13.9101 17.4836C13.795 17.4823 13.6799 17.4804 13.5648 17.478C13.3987 17.4747 13.2328 17.4732 13.0667 17.472C13.0158 17.4706 12.9648 17.4692 12.9124 17.4678C12.5366 17.4676 12.3227 17.5565 12.0123 17.7696C11.7872 18.0119 11.7231 18.1962 11.7116 18.5192C11.7271 18.8545 11.7954 19.0497 12.0414 19.2856C12.3872 19.5892 12.6512 19.609 13.0932 19.6059C13.1717 19.6058 13.1717 19.6058 13.2518 19.6056C13.4189 19.6052 13.586 19.6044 13.7531 19.6035C13.8664 19.6032 13.9798 19.6029 14.0931 19.6026C14.3709 19.6019 14.6486 19.6007 14.9263 19.5993C14.9256 19.6724 14.9249 19.7455 14.9242 19.8209C14.9217 20.0942 14.9202 20.3675 14.9189 20.6408C14.9182 20.7587 14.9173 20.8766 14.9161 20.9945C14.9144 21.1648 14.9137 21.335 14.9131 21.5053C14.9124 21.5573 14.9117 21.6094 14.911 21.663C14.9109 22.0842 14.9532 22.4743 15.1804 22.8394C15.4385 23.0904 15.6483 23.1808 16.0064 23.2206C16.3058 23.2075 16.5255 23.1095 16.756 22.9199C17.1124 22.4885 17.105 22.0514 17.1015 21.5185C17.1014 21.4634 17.1013 21.4083 17.1012 21.3516C17.1008 21.1769 17.1 21.0022 17.0991 20.8276C17.0988 20.7086 17.0985 20.5897 17.0982 20.4707C17.0974 20.1803 17.0963 19.8898 17.0949 19.5993C17.1646 19.6004 17.2343 19.6014 17.3062 19.6025C17.5661 19.6062 17.826 19.6085 18.0859 19.6105C18.1982 19.6115 18.3104 19.6129 18.4227 19.6146C18.5845 19.6171 18.7463 19.6183 18.9082 19.6191C18.958 19.6202 19.0078 19.6212 19.059 19.6223C19.4869 19.6225 19.7474 19.508 20.0639 19.2266C20.3053 18.9508 20.3036 18.6975 20.2985 18.3459C20.2705 18.0893 20.1832 17.9572 20.0089 17.7696C19.6439 17.519 19.3921 17.46 18.9545 17.472C18.901 17.4724 18.8476 17.4728 18.7925 17.4732C18.6233 17.4747 18.4542 17.4781 18.285 17.4816C18.1697 17.4829 18.0543 17.4842 17.9389 17.4853C17.6575 17.488 17.3763 17.4933 17.0949 17.4985C17.0949 17.0065 17.0949 16.5145 17.0949 16.0076C17.2443 16.01 17.3938 16.0123 17.5478 16.0148C17.6945 16.0164 17.8412 16.0176 17.9879 16.0188C18.0889 16.0198 18.1899 16.0212 18.2909 16.0229C19.1939 16.0712 19.1939 16.0712 19.982 15.7059C20.2594 15.3862 20.3041 15.167 20.2988 14.7566C20.2709 14.5015 20.1795 14.3664 20.0089 14.1779C19.5635 13.8273 19.1754 13.8292 18.6324 13.8348C18.5757 13.8351 18.5191 13.8354 18.4607 13.8357C18.3217 13.8365 18.1826 13.8378 18.0436 13.8391C18.374 13.4303 18.709 13.0262 19.0517 12.6277C19.0861 12.5877 19.1205 12.5477 19.1559 12.5064C19.2255 12.4255 19.2951 12.3445 19.3647 12.2635C19.7946 11.7635 20.2192 11.2609 20.6273 10.7429C20.6754 10.6819 20.6754 10.6819 20.7246 10.6196C21.0092 10.2554 21.0813 10.0297 21.0254 9.56969C20.8538 9.23282 20.6196 8.99406 20.28 8.82425C19.8886 8.79816 19.6764 8.82177 19.3312 9.02755C19.1449 9.1988 19.1449 9.1988 18.9712 9.40028C18.9229 9.45434 18.9229 9.45434 18.8736 9.5095C18.6197 9.79603 18.3768 10.0912 18.1365 10.3893C17.9537 10.6133 17.7664 10.833 17.5777 11.0521C17.304 11.3702 17.0312 11.6889 16.7603 12.0093C16.7307 12.0443 16.7012 12.0792 16.6707 12.1152C16.4722 12.3501 16.275 12.5861 16.0784 12.8225C15.7831 12.7152 15.616 12.4851 15.4219 12.2507C15.3859 12.208 15.3499 12.1653 15.3128 12.1213C15.0528 11.8118 14.7973 11.4987 14.5425 11.185C14.3262 10.9224 14.1047 10.6645 13.8825 10.4069C13.7085 10.205 13.5356 10.0024 13.3653 9.79735C13.3322 9.75768 13.2991 9.71801 13.2651 9.67714C13.2028 9.60229 13.1407 9.52724 13.079 9.45193C12.7216 9.01839 12.7216 9.01839 12.2212 8.8081C11.7871 8.79391 11.4716 8.86152 11.1774 9.1975Z" fill="black"/>
</g>
<defs>
<clipPath id="clip0_344_26">
<rect width="32" height="32" fill="white"/>
</clipPath>
</defs>
</svg>
