<svg width="60" height="62" viewBox="0 0 60 62" fill="none" xmlns="http://www.w3.org/2000/svg">
<g id="linkedin">
<path id="Exclude" d="M30 1.05371C46.5686 1.05371 60 14.4862 60 31.0537C59.9999 47.6226 46.5685 61.0547 30 61.0547C13.4312 61.0546 0.000109267 47.6225 0 31.0537C0 14.4863 13.4311 1.05381 30 1.05371ZM17.9805 39.543H23.1387V22.9736H17.9805V39.543ZM36.2539 22.5654C33.7457 22.5655 32.0664 23.9372 31.3779 25.2412H31.3096V22.9736H26.3701V39.543H31.5166V31.3477C31.5167 29.1862 31.9259 27.0939 34.6064 27.0938C37.2454 27.0938 37.2832 29.5652 37.2832 31.4873V39.543H42.4297V30.4561C42.4297 25.9946 41.4678 22.5654 36.2539 22.5654ZM20.5605 14.7412C18.9068 14.7412 17.5703 16.0793 17.5703 17.7246C17.5703 19.3739 18.9068 20.7139 20.5605 20.7139C22.2098 20.7138 23.5459 19.3738 23.5459 17.7246C23.5459 16.0794 22.2098 14.7413 20.5605 14.7412Z" fill="black"/>
</g>
</svg>
