<svg width="32" height="31" viewBox="0 0 32 31" fill="none" xmlns="http://www.w3.org/2000/svg">
<path d="M12.9205 3.16445C13.0709 3.34715 13.163 3.57073 13.185 3.80632C13.2069 4.0419 13.1577 4.27866 13.0438 4.486C12.1533 6.12096 11.6882 7.9536 11.6914 9.81532C11.6914 16.0087 16.7404 21.0238 22.9631 21.0238C23.7748 21.0238 24.565 20.9391 25.3243 20.7774C25.557 20.727 25.7995 20.7463 26.0214 20.8329C26.2434 20.9194 26.4348 21.0694 26.5719 21.2641C26.7167 21.4665 26.7905 21.7113 26.7819 21.96C26.7732 22.2088 26.6827 22.4477 26.5242 22.6396C25.3161 24.1235 23.792 25.3192 22.0633 26.1394C20.3345 26.9596 18.4444 27.3836 16.5309 27.3805C9.43031 27.3805 3.67896 21.66 3.67896 14.6117C3.67896 9.30703 6.93508 4.75708 11.5713 2.82868C11.8022 2.73107 12.0586 2.71104 12.3019 2.77159C12.5452 2.83213 12.7623 2.96999 12.9205 3.16445Z" fill="#313237"/>
<path d="M20.3048 7.58498C20.3268 7.51827 20.3693 7.46023 20.4263 7.41909C20.4833 7.37795 20.5517 7.3558 20.6221 7.3558C20.6923 7.3558 20.7607 7.37795 20.8177 7.41909C20.8747 7.46023 20.9172 7.51827 20.9394 7.58498L21.5355 9.37477C21.8019 10.1726 22.4273 10.798 23.2251 11.0644L25.0149 11.6605C25.0816 11.6826 25.1395 11.7251 25.1808 11.7821C25.2219 11.8391 25.2439 11.9075 25.2439 11.9778C25.2439 12.0481 25.2219 12.1165 25.1808 12.1735C25.1395 12.2305 25.0816 12.273 25.0149 12.2951L23.2251 12.8912C22.8316 13.0223 22.4739 13.2432 22.1807 13.5365C21.8874 13.8298 21.6665 14.1874 21.5355 14.5809L20.9394 16.3707C20.9172 16.4373 20.8747 16.4954 20.8177 16.5365C20.7607 16.5777 20.6923 16.5998 20.6221 16.5998C20.5517 16.5998 20.4833 16.5777 20.4263 16.5365C20.3693 16.4954 20.3268 16.4373 20.3048 16.3707L19.7087 14.5809C19.5775 14.1874 19.3566 13.8298 19.0633 13.5365C18.7701 13.2432 18.4124 13.0223 18.019 12.8912L16.2292 12.2951C16.1625 12.273 16.1044 12.2305 16.0633 12.1735C16.0221 12.1165 16 12.0481 16 11.9778C16 11.9075 16.0221 11.8391 16.0633 11.7821C16.1044 11.7251 16.1625 11.6826 16.2292 11.6605L18.019 11.0644C18.4124 10.9333 18.7701 10.7124 19.0633 10.4191C19.3566 10.1258 19.5775 9.76826 19.7087 9.37477L20.3048 7.58498ZM25.0319 2.88871C25.0469 2.84485 25.0754 2.80682 25.1133 2.7799C25.1511 2.75299 25.1964 2.73853 25.2429 2.73853C25.2892 2.73853 25.3345 2.75299 25.3723 2.7799C25.4101 2.80682 25.4386 2.84485 25.4539 2.88871L25.8513 4.08087C26.0284 4.61381 26.4458 5.03122 26.9787 5.20835L28.1709 5.60574C28.2147 5.62094 28.2527 5.64943 28.2797 5.68725C28.3066 5.72506 28.3211 5.77033 28.3211 5.81675C28.3211 5.86316 28.3066 5.90843 28.2797 5.94624C28.2527 5.98407 28.2147 6.01257 28.1709 6.02777L26.9787 6.42516C26.716 6.51252 26.4774 6.65991 26.2816 6.85563C26.086 7.05135 25.9386 7.29 25.8513 7.55263L25.4539 8.7448C25.4386 8.78865 25.4101 8.82668 25.3723 8.8536C25.3345 8.88051 25.2892 8.89497 25.2429 8.89497C25.1964 8.89497 25.1511 8.88051 25.1133 8.8536C25.0754 8.82668 25.0469 8.78865 25.0319 8.7448L24.6345 7.55263C24.547 7.29 24.3996 7.05135 24.204 6.85563C24.0082 6.65991 23.7696 6.51252 23.507 6.42516L22.3148 6.02777C22.2709 6.01257 22.2329 5.98407 22.2059 5.94624C22.179 5.90843 22.1647 5.86316 22.1647 5.81675C22.1647 5.77033 22.179 5.72506 22.2059 5.68725C22.2329 5.64943 22.2709 5.62094 22.3148 5.60574L23.507 5.20835C24.0399 5.03122 24.4573 4.61381 24.6345 4.08087L25.0319 2.88871Z" fill="#313237"/>
</svg>
