<svg width="32" height="32" viewBox="0 0 32 32" fill="none" xmlns="http://www.w3.org/2000/svg">
<g clip-path="url(#clip0_348_18)">
<path d="M15.1113 0.00809674C15.1741 0.0075545 15.237 0.00701225 15.3018 0.00645357C17.9358 -0.01111 17.9358 -0.01111 19.1137 0.254126C19.1831 0.269386 19.2525 0.284647 19.324 0.300369C21.4079 0.771491 23.4546 1.58921 25.1817 2.86564C25.2623 2.92455 25.3429 2.98346 25.4259 3.04416C26.0197 3.48553 26.5682 3.96685 27.1019 4.47863C27.1631 4.5367 27.1631 4.5367 27.2255 4.59595C27.8626 5.20291 28.427 5.84142 28.9453 6.55248C28.9766 6.59494 29.008 6.63741 29.0402 6.68116C30.3746 8.51162 31.2516 10.6408 31.7104 12.8508C31.723 12.9083 31.7356 12.9658 31.7485 13.025C32.5729 16.9396 31.6401 21.2794 29.52 24.6335C28.6749 25.9078 27.6797 27.1682 26.4874 28.1359C26.4066 28.2041 26.3258 28.2723 26.245 28.3405C23.6825 30.4771 20.2572 31.9731 16.8854 31.9919C16.7883 31.9927 16.7883 31.9927 16.6894 31.9936C13.9853 32.0111 13.9853 32.0111 12.8154 31.7459C12.7115 31.723 12.7115 31.723 12.6054 31.6997C9.78753 31.0627 7.29095 29.7848 5.15847 27.8355C5.00774 27.6993 4.85437 27.5689 4.69761 27.4398C4.40092 27.1866 4.15594 26.8978 3.90552 26.5997C3.82027 26.5028 3.82027 26.5028 3.7333 26.4041C2.14756 24.5701 1.05314 22.3614 0.4251 20.0277C0.407389 19.9625 0.389678 19.8974 0.371431 19.8303C0.0528918 18.5739 -0.0545889 17.3163 -0.0453564 16.024C-0.045006 15.919 -0.045006 15.919 -0.0446485 15.8119C-0.0390496 14.6727 0.0295703 13.579 0.295484 12.4668C0.311945 12.3974 0.328406 12.328 0.345365 12.2565C0.87928 10.0835 1.84791 8.01787 3.21423 6.24524C3.27334 6.16841 3.33245 6.09158 3.39336 6.01242C4.00837 5.24116 4.67449 4.48686 5.4417 3.86416C5.52253 3.79597 5.60334 3.72776 5.68413 3.65953C8.27427 1.49984 11.7071 0.0277612 15.1113 0.00809674ZM20.0354 6.55248C19.628 7.07001 19.6395 7.53571 19.6356 8.16722C19.6345 8.28305 19.6345 8.28305 19.6333 8.40122C19.6309 8.65597 19.629 8.91073 19.6271 9.16549C19.6255 9.34232 19.6239 9.51914 19.6223 9.69597C19.618 10.161 19.6142 10.6261 19.6105 11.0912C19.6067 11.5659 19.6024 12.0405 19.5981 12.5152C19.5899 13.4464 19.5821 14.3776 19.5746 15.3087C19.5208 15.3342 19.4669 15.3597 19.4115 15.386C19.166 15.5031 18.9215 15.6219 18.6769 15.7408C18.5922 15.7809 18.5075 15.821 18.4202 15.8623C17.8726 16.1303 17.5436 16.343 17.2415 16.8785C17.1578 17.2218 17.2176 17.5052 17.3711 17.8194C17.6432 18.1922 17.8487 18.3666 18.3063 18.4543C18.6617 18.4609 18.9556 18.3079 19.2674 18.1507C19.3698 18.0994 19.4722 18.0482 19.5746 17.9971C19.5753 18.0727 19.5753 18.0727 19.576 18.1499C19.5809 18.677 19.5874 19.2041 19.5947 19.7312C19.5973 19.9276 19.5995 20.1241 19.6012 20.3205C19.6038 20.6037 19.6078 20.8868 19.6121 21.1699C19.6126 21.2571 19.6131 21.3442 19.6136 21.434C19.6249 22.2528 19.6249 22.2528 19.9933 22.9603C20.3574 23.2725 20.6036 23.3242 21.0694 23.3182C21.3585 23.2866 21.5116 23.183 21.7252 22.9896C22.0841 22.5338 22.118 22.168 22.1251 21.6005C22.1258 21.5473 22.1266 21.494 22.1274 21.4392C22.1298 21.2642 22.1317 21.0893 22.1336 20.9143C22.1352 20.7926 22.1368 20.6709 22.1384 20.5491C22.1427 20.2296 22.1465 19.91 22.1502 19.5904C22.154 19.2639 22.1583 18.9375 22.1626 18.6111C22.1708 17.9712 22.1786 17.3312 22.1861 16.6913C22.2321 16.6704 22.2782 16.6496 22.3256 16.6281C22.5372 16.5317 22.7481 16.4339 22.959 16.3361C23.0314 16.3033 23.1038 16.2705 23.1785 16.2367C23.7166 15.9855 24.2473 15.7259 24.4904 15.1551C24.5439 14.778 24.5316 14.4726 24.3656 14.1278C24.1105 13.8459 23.8688 13.6722 23.5111 13.5421C23.0314 13.5421 22.6074 13.7912 22.1861 14.003C22.1857 13.9218 22.1852 13.8405 22.1847 13.7569C22.1803 12.9896 22.1747 12.2223 22.168 11.455C22.1646 11.0606 22.1616 10.6662 22.1595 10.2717C22.1575 9.89074 22.1544 9.50977 22.1505 9.12878C22.1492 8.98379 22.1484 8.83879 22.1479 8.6938C22.1471 8.48992 22.145 8.2861 22.1425 8.08223C22.1426 8.02295 22.1427 7.96367 22.1428 7.90259C22.1351 7.44952 22.0794 6.93166 21.7674 6.58066C21.4018 6.27045 21.1574 6.2179 20.6913 6.22394C20.4022 6.25552 20.2491 6.35914 20.0354 6.55248ZM7.66917 11.5499C7.40593 11.9365 7.38822 12.2347 7.43874 12.6972C7.61908 13.0718 7.84488 13.2659 8.20683 13.4653C8.50242 13.5426 8.781 13.5514 9.08573 13.5508C9.18412 13.5508 9.28251 13.5508 9.38388 13.5508C9.49049 13.5504 9.5971 13.55 9.70371 13.5496C9.81337 13.5495 9.92304 13.5494 10.0327 13.5493C10.3205 13.549 10.6082 13.5482 10.896 13.5474C11.19 13.5466 11.484 13.5463 11.778 13.5459C12.3542 13.545 12.9304 13.5437 13.5067 13.5421C12.3883 15.0653 12.3883 15.0653 11.8169 15.808C11.4276 16.3163 11.0431 16.8276 10.6647 17.3442C10.2864 17.8607 9.90171 18.3719 9.51259 18.8804C9.10726 19.4105 8.70467 19.9425 8.30764 20.4789C8.26433 20.5372 8.22101 20.5954 8.17638 20.6554C7.57097 21.4235 7.57097 21.4235 7.40664 22.35C7.47568 22.7345 7.67355 22.9326 7.9716 23.1673C8.4009 23.4038 8.82195 23.3855 9.30039 23.3861C9.37125 23.3865 9.44212 23.3868 9.51513 23.3872C9.74911 23.3883 9.98309 23.3889 10.2171 23.3893C10.3802 23.3897 10.5433 23.3902 10.7064 23.3906C11.0484 23.3914 11.3903 23.3919 11.7323 23.3921C12.1693 23.3926 12.6064 23.3944 13.0435 23.3966C13.3804 23.398 13.7174 23.3984 14.0544 23.3985C14.2155 23.3988 14.3766 23.3994 14.5376 23.4004C14.7635 23.4017 14.9894 23.4016 15.2153 23.4011C15.3141 23.4021 15.3141 23.4021 15.4149 23.4032C15.8843 23.4 16.4158 23.3572 16.781 23.0317C17.0917 22.6666 17.144 22.4217 17.138 21.9557C17.1064 21.6666 17.0028 21.5135 16.8095 21.2998C16.3686 20.9528 16.0187 20.906 15.4697 20.9071C15.3713 20.9071 15.2729 20.9071 15.1716 20.9071C15.0649 20.9075 14.9583 20.9079 14.8517 20.9083C14.7421 20.9084 14.6324 20.9086 14.5227 20.9086C14.235 20.9089 13.9472 20.9097 13.6594 20.9105C13.3654 20.9113 13.0714 20.9117 12.7774 20.912C12.2012 20.9129 11.625 20.9142 11.0488 20.9158C12.1671 19.3926 12.1671 19.3926 12.7386 18.6499C13.1279 18.1416 13.5124 17.6303 13.8907 17.1137C14.269 16.5972 14.6537 16.086 15.0428 15.5776C15.4482 15.0474 15.8508 14.5154 16.2478 13.979C16.2911 13.9208 16.3344 13.8625 16.3791 13.8025C16.9845 13.0344 16.9845 13.0344 17.1488 12.1079C17.0798 11.7234 16.8819 11.5253 16.5838 11.2906C16.1545 11.0541 15.7335 11.0725 15.255 11.0718C15.1842 11.0715 15.1133 11.0711 15.0403 11.0707C14.8063 11.0696 14.5723 11.069 14.3384 11.0686C14.1752 11.0682 14.0121 11.0677 13.849 11.0673C13.5071 11.0665 13.1651 11.066 12.8232 11.0658C12.3861 11.0653 11.9491 11.0635 11.512 11.0613C11.175 11.0599 10.838 11.0595 10.501 11.0594C10.3399 11.0591 10.1789 11.0585 10.0178 11.0575C9.7919 11.0562 9.56605 11.0563 9.34014 11.0568C9.27428 11.0561 9.20842 11.0554 9.14056 11.0547C8.6025 11.0584 8.03569 11.119 7.66917 11.5499Z" fill="black"/>
</g>
<defs>
<clipPath id="clip0_348_18">
<rect width="32" height="32" fill="white"/>
</clipPath>
</defs>
</svg>
