<svg width="32" height="32" viewBox="0 0 32 32" fill="none" xmlns="http://www.w3.org/2000/svg">
<path d="M13.5111 17.1451C13.7461 17.1455 13.9811 17.1451 14.2161 17.1448C14.6104 17.1445 15.0047 17.1449 15.3991 17.1457C15.8522 17.1467 16.3053 17.1464 16.7585 17.1454C17.1505 17.1446 17.5425 17.1445 17.9345 17.145C18.1674 17.1452 18.4002 17.1453 18.633 17.1447C20.8521 17.14 20.8521 17.14 21.8318 17.4859C21.8937 17.5073 21.8937 17.5073 21.9568 17.5291C22.7008 17.7976 23.3689 18.1911 23.9772 18.6947C24.0259 18.7341 24.0745 18.7734 24.1246 18.814C24.9859 19.5458 25.6397 20.6037 25.74 21.7457C25.8142 22.8644 25.4851 23.9047 24.7447 24.758C22.8581 26.7994 20.3919 27.7686 17.6435 28.0256C17.58 28.032 17.5164 28.0383 17.4509 28.0448C14.3785 28.302 10.814 27.8699 8.3692 25.8201C8.13704 25.6189 7.91294 25.41 7.69058 25.1981C7.64794 25.1584 7.60529 25.1188 7.56136 25.0779C6.77902 24.3302 6.29571 23.3175 6.25006 22.2338C6.23451 20.9917 6.82377 19.8773 7.6654 18.9958C9.3101 17.4268 11.3299 17.1397 13.5111 17.1451ZM9.33056 20.8437C8.95108 21.2965 8.72669 21.7189 8.74605 22.3186C8.80407 22.8226 9.15769 23.153 9.50021 23.5015C9.54082 23.5435 9.58142 23.5855 9.62326 23.6288C10.6244 24.5971 11.9978 25.1022 13.3386 25.3783C13.4014 25.3915 13.4014 25.3915 13.4655 25.4049C14.2972 25.5664 15.1334 25.6156 15.9788 25.6116C16.0253 25.6115 16.0718 25.6114 16.1198 25.6112C18.3776 25.6018 20.6663 25.1638 22.3938 23.6146C22.4398 23.5746 22.4858 23.5346 22.5332 23.4934C22.9346 23.1227 23.2482 22.6762 23.2845 22.116C23.2528 21.5938 22.9453 21.0797 22.5635 20.7306C21.4976 19.8206 20.3109 19.5908 18.9483 19.5913C18.8779 19.5911 18.8076 19.5909 18.7351 19.5907C18.5439 19.5903 18.3528 19.5901 18.1616 19.5901C18.0416 19.59 17.9216 19.5899 17.8016 19.5898C17.3815 19.5892 16.9613 19.589 16.5412 19.5891C16.1521 19.5891 15.763 19.5885 15.3739 19.5876C15.0377 19.5869 14.7016 19.5866 14.3654 19.5866C14.1656 19.5866 13.9657 19.5865 13.7659 19.5858C12.1242 19.5812 10.5847 19.6323 9.33056 20.8437Z" fill="#313237"/>
<path d="M19.9613 5.3138C21.1027 6.30437 21.9233 7.72634 22.0546 9.25071C22.1686 11.0073 21.7406 12.5957 20.5842 13.9444C20.5437 13.9963 20.5437 13.9963 20.5023 14.0491C19.6492 15.1197 18.1896 15.7932 16.8519 15.9803C15.5769 16.0726 14.3713 15.969 13.2326 15.3582C13.1789 15.3315 13.1252 15.3047 13.0698 15.2771C12.6896 15.082 12.3698 14.8428 12.045 14.5665C12.0074 14.5371 11.9698 14.5077 11.9311 14.4775C10.7934 13.5595 10.1109 12.0346 9.95267 10.6079C9.83329 8.92584 10.2413 7.34385 11.3311 6.03791C13.5334 3.5005 17.3695 3.14576 19.9613 5.3138ZM13.1619 7.70263C12.5117 8.55889 12.3634 9.50169 12.4409 10.5514C12.5505 11.3437 12.9624 11.9748 13.5154 12.5307C13.5488 12.5661 13.5823 12.6015 13.6168 12.638C14.2405 13.2466 15.1497 13.5404 16.0036 13.5698C17.0137 13.535 17.9078 13.1471 18.605 12.4176C18.6585 12.3656 18.6585 12.3656 18.7132 12.3126C19.3844 11.6192 19.5951 10.7047 19.5902 9.77109C19.5655 8.81859 19.1488 8.00908 18.4918 7.32798C17.6591 6.59534 16.7193 6.28971 15.6211 6.35466C14.6443 6.44704 13.7951 6.96816 13.1619 7.70263Z" fill="#313237"/>
</svg>
