<svg width="32" height="32" viewBox="0 0 32 32" fill="none" xmlns="http://www.w3.org/2000/svg">
<g clip-path="url(#clip0_350_18)">
<path d="M15.9768 -0.0196447C16.0404 -0.01951 16.104 -0.0193754 16.1696 -0.0192366C17.0826 -0.0161322 17.9784 -0.000451118 18.8752 0.187386C18.9362 0.199804 18.9971 0.212221 19.0599 0.225015C21.5004 0.735533 23.7792 1.7117 25.7502 3.24989C25.8062 3.29267 25.8622 3.33545 25.9199 3.37953C26.8921 4.13673 27.8078 5.02607 28.5627 5.99989C28.6111 6.05975 28.6596 6.11961 28.7095 6.18128C30.8681 8.8941 32.0277 12.3405 32.02 15.7953C32.0198 15.9791 32.0212 16.1627 32.0228 16.3464C32.0256 17.1823 31.9503 17.9883 31.8127 18.8124C31.7951 18.919 31.7951 18.919 31.7771 19.0277C31.338 21.4722 30.2766 23.7961 28.7502 25.7499C28.7028 25.8106 28.6553 25.8714 28.6064 25.934C27.8355 26.8952 26.973 27.8047 26.0002 28.5624C25.9417 28.6102 25.8832 28.6579 25.823 28.7072C23.8259 30.3063 21.378 31.3382 18.8752 31.8124C18.8246 31.8226 18.7741 31.8328 18.7219 31.8434C16.8444 32.2103 14.6792 32.1419 12.8127 31.7499C12.7175 31.7303 12.7175 31.7303 12.6204 31.7103C10.2989 31.217 8.11995 30.2106 6.25023 28.7499C6.18948 28.7024 6.12873 28.655 6.06614 28.6061C5.10492 27.8352 4.19537 26.9726 3.43773 25.9999C3.36606 25.9121 3.36606 25.9121 3.29295 25.8226C2.80315 25.211 2.39806 24.549 2.00023 23.8749C1.97556 23.8332 1.9509 23.7914 1.92549 23.7485C1.11448 22.3558 0.596646 20.7965 0.261945 19.2264C0.249754 19.1694 0.237563 19.1123 0.225003 19.0535C0.0222317 18.0438 -0.0232165 17.0505 -0.0193051 16.0233C-0.0191704 15.9597 -0.0190357 15.8961 -0.0188969 15.8305C-0.0157925 14.9175 -0.000111461 14.0217 0.187726 13.1249C0.200143 13.064 0.212561 13.003 0.225354 12.9403C0.85579 9.92644 2.23309 7.13896 4.38884 4.92671C4.49973 4.8129 4.60959 4.69817 4.71946 4.58338C5.16331 4.12464 5.62669 3.71406 6.13871 3.33308C6.25202 3.24855 6.36418 3.16264 6.4763 3.07655C7.00171 2.67738 7.54805 2.33103 8.12352 2.00858C8.23995 1.94316 8.35547 1.87634 8.47093 1.80921C10.7585 0.523768 13.3744 -0.0295542 15.9768 -0.0196447ZM9.94944 10.3258C9.74957 10.6263 9.69326 10.958 9.75023 11.3124C9.94737 11.965 10.4977 12.4119 10.9682 12.8734C11.0575 12.9621 11.1468 13.0509 11.2359 13.1398C11.4694 13.3721 11.7038 13.6034 11.9384 13.8345C12.1782 14.0711 12.4171 14.3086 12.6561 14.546C13.1241 15.0107 13.5931 15.4744 14.0627 15.9374C13.9608 16.1983 13.7694 16.3702 13.5728 16.5616C13.5355 16.5984 13.4982 16.6352 13.4597 16.6732C13.3788 16.753 13.2977 16.8327 13.2164 16.9123C13.0876 17.0387 12.9592 17.1656 12.831 17.2926C12.4664 17.6536 12.1012 18.014 11.735 18.3734C11.5109 18.5935 11.2876 18.8143 11.0647 19.0356C10.98 19.1195 10.8949 19.2031 10.8096 19.2863C10.0465 19.992 10.0465 19.992 9.71898 20.9452C9.78289 21.4405 9.91401 21.7201 10.31 22.0368C10.6158 22.2478 10.947 22.3087 11.3127 22.2499C11.9653 22.0527 12.4123 21.5024 12.8738 21.0319C12.9625 20.9426 13.0513 20.8533 13.1401 20.7642C13.3724 20.5307 13.6037 20.2963 13.8349 20.0617C14.0715 19.8219 14.309 19.583 14.5464 19.344C15.011 18.876 15.4747 18.407 15.9377 17.9374C16.1986 18.0393 16.3706 18.2307 16.5619 18.4273C16.5987 18.4646 16.6356 18.502 16.6735 18.5404C16.7534 18.6214 16.8331 18.7025 16.9127 18.7837C17.0391 18.9125 17.1659 19.0409 17.2929 19.1691C17.6539 19.5337 18.0143 19.8989 18.3737 20.2651C18.5938 20.4892 18.8146 20.7125 19.036 20.9354C19.1198 21.0201 19.2034 21.1052 19.2867 21.1905C19.9923 21.9536 19.9923 21.9536 20.9455 22.2811C21.4409 22.2172 21.7204 22.0861 22.0371 21.6901C22.2481 21.3844 22.309 21.0531 22.2502 20.6874C22.0531 20.0348 21.5027 19.5879 21.0322 19.1264C20.9429 19.0376 20.8537 18.9488 20.7645 18.86C20.531 18.6277 20.2966 18.3964 20.062 18.1652C19.8222 17.9286 19.5833 17.6912 19.3443 17.4537C18.8763 16.9891 18.4074 16.5254 17.9377 16.0624C18.0396 15.8015 18.2311 15.6296 18.4277 15.4382C18.465 15.4014 18.5023 15.3646 18.5407 15.3266C18.6217 15.2467 18.7028 15.167 18.784 15.0874C18.9129 14.9611 19.0412 14.8342 19.1695 14.7072C19.5341 14.3462 19.8993 13.9858 20.2654 13.6264C20.4896 13.4063 20.7129 13.1855 20.9357 12.9642C21.0205 12.8803 21.1055 12.7967 21.1909 12.7135C21.9539 12.0078 21.9539 12.0078 22.2815 11.0546C22.2171 10.5558 22.085 10.2809 21.686 9.96302C21.3666 9.7347 21.0714 9.70004 20.6877 9.74989C20.0359 9.94171 19.5861 10.4995 19.1267 10.9679C19.038 11.0572 18.9492 11.1464 18.8603 11.2356C18.628 11.4691 18.3967 11.7035 18.1656 11.9381C17.929 12.1779 17.6915 12.4168 17.4541 12.6558C16.9894 13.1238 16.5258 13.5928 16.0627 14.0624C15.8018 13.9605 15.6299 13.769 15.4385 13.5724C15.4017 13.5351 15.3649 13.4978 15.327 13.4594C15.2471 13.3784 15.1674 13.2973 15.0878 13.2161C14.9614 13.0872 14.8345 12.9589 14.7076 12.8307C14.3466 12.466 13.9862 12.1008 13.6267 11.7347C13.4067 11.5106 13.1858 11.2872 12.9645 11.0644C12.8806 10.9796 12.7971 10.8946 12.7138 10.8092C11.9941 10.0418 11.9941 10.0418 11.0237 9.71473C10.5607 9.74576 10.2306 9.96593 9.94944 10.3258Z" fill="black"/>
</g>
<defs>
<clipPath id="clip0_350_18">
<rect width="32" height="32" fill="white"/>
</clipPath>
</defs>
</svg>
