<svg width="32" height="32" viewBox="0 0 32 32" fill="none" xmlns="http://www.w3.org/2000/svg">
<g clip-path="url(#clip0_350_20)">
<path d="M21.4948 3.39782C21.7529 3.634 22.0026 3.87732 22.2498 4.12489C22.2865 4.15873 22.3232 4.19256 22.3611 4.22743C24.5329 6.26103 25.7953 9.52335 25.8928 12.4551C25.8978 12.6758 25.8988 12.8963 25.8982 13.1171C25.8982 13.1874 25.8982 13.1874 25.8981 13.2591C25.8936 14.6319 25.6854 15.9469 25.2498 17.2499C25.2278 17.3161 25.2278 17.3161 25.2054 17.3836C25.0322 17.8952 24.8187 18.386 24.5896 18.8749C24.5669 18.9235 24.5441 18.9721 24.5207 19.0221C24.3836 19.3078 24.2328 19.5668 24.0462 19.8234C23.9852 19.9367 23.9852 19.9367 24.0411 20.0504C24.1468 20.2235 24.2731 20.3503 24.4173 20.4932C24.4472 20.5231 24.4772 20.553 24.508 20.5838C24.6084 20.6838 24.7092 20.7833 24.81 20.8829C24.8821 20.9545 24.9542 21.0262 25.0262 21.0979C25.1814 21.2523 25.3368 21.4065 25.4923 21.5605C25.7386 21.8045 25.9843 22.049 26.2299 22.2936C26.9284 22.9891 27.6276 23.6838 28.3274 24.378C28.7139 24.7614 29.0999 25.1453 29.4854 25.5296C29.7291 25.7725 29.9734 26.0148 30.218 26.2567C30.3707 26.4079 30.5229 26.5597 30.6749 26.7116C30.7451 26.7815 30.8155 26.8512 30.8861 26.9206C31.5071 27.5317 32.0056 28.1219 32.0235 29.0285C32.0234 29.0994 32.0234 29.0994 32.0232 29.1718C32.023 29.2458 32.023 29.2458 32.0229 29.3214C32.011 29.8921 31.8475 30.3559 31.4998 30.8124C31.465 30.8639 31.4302 30.9155 31.3943 30.9686C30.9339 31.4664 30.2698 31.7789 29.5982 31.8222C28.5825 31.8566 27.9195 31.4204 27.1988 30.7504C26.8933 30.4633 26.5966 30.1674 26.3007 29.8704C26.2347 29.8044 26.1687 29.7385 26.1027 29.6725C25.9261 29.4959 25.7497 29.3191 25.5733 29.1423C25.388 28.9566 25.2025 28.771 25.017 28.5855C24.667 28.2353 24.3171 27.8848 23.9673 27.5344C23.5685 27.1349 23.1695 26.7356 22.7706 26.3363C21.9509 25.5161 21.1315 24.6955 20.3123 23.8749C20.1733 23.9537 20.0344 24.0327 19.8955 24.1117C19.8566 24.1338 19.8176 24.1559 19.7775 24.1786C19.5493 24.3086 19.3262 24.4438 19.1052 24.5858C18.0999 25.1716 16.9384 25.539 15.8123 25.8124C15.7696 25.8228 15.7269 25.8331 15.683 25.8438C12.5839 26.5673 9.06325 26.0068 6.34303 24.3595C6.03462 24.1654 5.73409 23.9612 5.43726 23.7499C5.39791 23.7219 5.35855 23.694 5.318 23.6652C4.81381 23.3022 4.35354 22.8934 3.9055 22.4642C3.81966 22.382 3.73311 22.3005 3.64649 22.2191C3.21769 21.8059 2.85393 21.352 2.49976 20.8749C2.46216 20.8242 2.46216 20.8242 2.42381 20.7726C2.02521 20.2295 1.6876 19.6581 1.37476 19.0624C1.35325 19.0215 1.33174 18.9806 1.30958 18.9385C0.516245 17.405 0.00178486 15.6153 -0.0151287 13.8829C-0.0157408 13.831 -0.016352 13.779 -0.0169826 13.7255C-0.0278352 12.5648 -0.0151793 11.4486 0.249764 10.3124C0.263158 10.2535 0.276552 10.1945 0.290352 10.1338C0.484537 9.30212 0.764551 8.52342 1.12476 7.74989C1.14491 7.70625 1.16505 7.66261 1.1858 7.61765C1.73001 6.45098 2.43408 5.40079 3.30689 4.45448C3.42803 4.32245 3.54415 4.18739 3.65992 4.05067C3.87892 3.80017 4.11996 3.5881 4.37476 3.37489C4.42939 3.32727 4.48401 3.27966 4.54029 3.2306C8.87125 -0.490769 15.3613 -0.814289 21.4948 3.39782ZM9.24976 5.24989C9.18894 5.27736 9.12811 5.30483 9.06544 5.33314C8.24443 5.72271 7.54911 6.27446 6.87476 6.87489C6.82997 6.91437 6.78517 6.95384 6.73902 6.99452C5.31363 8.33155 4.33282 10.4601 4.23924 12.4064C4.15797 15.0995 4.93219 17.335 6.77247 19.3331C8.43054 21.0109 10.6904 21.8369 13.0168 21.8753C15.312 21.8696 17.482 20.8965 19.1248 19.3124C19.2792 19.1522 19.4216 18.9847 19.5623 18.8124C19.6106 18.7539 19.6589 18.6954 19.7087 18.6351C21.2158 16.7704 21.8196 14.4588 21.6103 12.0859C21.5741 11.78 21.5122 11.486 21.4373 11.1874C21.4269 11.1449 21.4165 11.1024 21.4058 11.0586C20.9207 9.11658 19.7843 7.39754 18.1873 6.18739C18.1424 6.15186 18.0975 6.11633 18.0513 6.07972C17.2438 5.473 16.284 5.01728 15.3123 4.74989C15.2499 4.7316 15.1875 4.71331 15.1233 4.69447C13.1611 4.15526 11.0843 4.41416 9.24976 5.24989Z" fill="black"/>
</g>
<defs>
<clipPath id="clip0_350_20">
<rect width="32" height="32" fill="white"/>
</clipPath>
</defs>
</svg>
