<svg width="60" height="60" viewBox="0 0 60 60" fill="none" xmlns="http://www.w3.org/2000/svg">
<g id="spotify">
<path id="Exclude" d="M30 0C46.5684 0 59.9997 13.4317 60 30C60 46.5685 46.5685 60.001 30 60.001C13.4315 60.001 0 46.5685 0 30C0.000252546 13.4317 13.4316 0 30 0ZM30.459 12.6719C20.6868 12.6719 12.7647 20.5941 12.7646 30.3652C12.7646 40.1364 20.6868 48.0586 30.459 48.0586C40.2302 48.0586 48.1514 40.1365 48.1514 30.3652C48.1513 20.5941 40.2302 12.6719 30.459 12.6719ZM26.3828 33.8027C28.3394 33.7434 30.2026 33.8857 31.918 34.2275C34.097 34.6619 36.0467 35.4197 37.7139 36.4785C38.2539 36.8214 38.4142 37.5372 38.0703 38.0771C37.8501 38.4251 37.4749 38.6143 37.0918 38.6143C36.8798 38.6142 36.6646 38.5571 36.4717 38.4346C33.2347 36.3782 29.2671 36.0388 26.5088 36.1172C23.449 36.2037 21.1471 36.8084 21.125 36.8135C20.5067 36.9792 19.8719 36.6105 19.707 35.9932C19.5415 35.3749 19.9091 34.741 20.5264 34.5762C20.6324 34.5478 23.0707 33.9032 26.3828 33.8027ZM26.2207 28.1182C31.0975 27.9633 35.7733 29.0691 39.7422 31.3174C40.4239 31.7025 40.6633 32.5693 40.2773 33.25C40.0169 33.7115 39.5366 33.9716 39.042 33.9717C38.8057 33.9717 38.564 33.9118 38.3438 33.7871C29.8306 28.9645 20.8737 31.7326 20.7842 31.7607C20.036 31.998 19.2393 31.586 19 30.8398C18.7629 30.0928 19.1758 29.2949 19.9219 29.0576C20.0294 29.0228 22.5388 28.2348 26.2207 28.1182ZM26.4746 21.9375C29.0056 21.846 31.4847 22.0188 33.8438 22.4512C36.8132 22.9972 39.6 23.9609 42.123 25.3154C42.9694 25.7689 43.2871 26.8214 42.833 27.668C42.5203 28.2522 41.9202 28.585 41.2998 28.585C41.0234 28.5849 40.7418 28.5166 40.4814 28.3779C30.8541 23.2145 20.1545 26.3077 20.0469 26.3389C19.128 26.6131 18.1604 26.0896 17.8867 25.1699C17.6122 24.2509 18.1367 23.2824 19.0557 23.0088C19.1804 22.9716 22.1629 22.0974 26.4746 21.9375Z" fill="black"/>
</g>
</svg>
