<svg width="34" height="32" viewBox="0 0 34 32" fill="none" xmlns="http://www.w3.org/2000/svg">
<path d="M16.9834 1.05238C16.7008 1.05679 16.4316 1.17312 16.2347 1.37584C16.0379 1.57855 15.9295 1.85108 15.9334 2.13362V5.33362C15.9314 5.47498 15.9575 5.6153 16.0102 5.74648C16.0629 5.87764 16.1412 5.99702 16.2404 6.09768C16.3396 6.19834 16.4579 6.27828 16.5883 6.33284C16.7187 6.38738 16.8587 6.41548 17 6.41548C17.1414 6.41548 17.2814 6.38738 17.4118 6.33284C17.5422 6.27828 17.6604 6.19834 17.7597 6.09768C17.8589 5.99702 17.9372 5.87764 17.9899 5.74648C18.0426 5.6153 18.0687 5.47498 18.0667 5.33362V2.13362C18.0687 1.99092 18.042 1.84927 17.9882 1.71706C17.9344 1.58486 17.8546 1.46479 17.7536 1.36397C17.6526 1.26315 17.5324 1.18362 17.4001 1.1301C17.2678 1.07658 17.1261 1.05015 16.9834 1.05238ZM7.18337 5.11904C6.97135 5.11952 6.76427 5.18314 6.58859 5.30182C6.41289 5.4205 6.27655 5.58884 6.19697 5.78536C6.11737 5.98188 6.09815 6.19764 6.14173 6.40514C6.18533 6.61262 6.28975 6.80242 6.44169 6.9503L8.70419 9.2128C8.80249 9.31516 8.92021 9.3969 9.05049 9.4532C9.18075 9.5095 9.32095 9.53924 9.46285 9.54068C9.60477 9.54212 9.74553 9.51524 9.87693 9.4616C10.0083 9.40796 10.1277 9.32864 10.228 9.22828C10.3284 9.12794 10.4077 9.00858 10.4613 8.87718C10.515 8.7458 10.5419 8.60502 10.5404 8.46312C10.539 8.3212 10.5092 8.18102 10.4529 8.05074C10.3966 7.92048 10.3149 7.80274 10.2125 7.70446L7.95003 5.44196C7.85039 5.33952 7.73117 5.25816 7.59947 5.20268C7.46777 5.14722 7.32627 5.11878 7.18337 5.11904ZM26.7834 5.11904C26.5062 5.1273 26.2432 5.24312 26.05 5.44196L23.7876 7.70446C23.6852 7.80274 23.6034 7.92048 23.5472 8.05074C23.4908 8.18102 23.461 8.3212 23.4596 8.46312C23.4582 8.60502 23.485 8.7458 23.5388 8.87718C23.5924 9.00856 23.6718 9.12794 23.772 9.22828C23.8724 9.32862 23.9918 9.40794 24.1232 9.46158C24.2546 9.51524 24.3954 9.54212 24.5372 9.54068C24.6792 9.53924 24.8194 9.5095 24.9496 9.45318C25.0798 9.39688 25.1976 9.31516 25.2958 9.2128L27.5584 6.9503C27.7126 6.80046 27.8178 6.60756 27.8604 6.39688C27.903 6.1862 27.881 5.96754 27.7972 5.76958C27.7134 5.57162 27.5718 5.4036 27.391 5.28752C27.21 5.17142 26.9982 5.1127 26.7834 5.11904ZM17 8.53362C15.0198 8.53362 13.1206 9.3203 11.7203 10.7206C10.32 12.1208 9.53337 14.02 9.53337 16.0003C9.53337 17.9806 10.32 19.8798 11.7203 21.2801C13.1206 22.6803 15.0198 23.4669 17 23.4669C18.9803 23.4669 20.8794 22.6803 22.2798 21.2801C23.68 19.8798 24.4668 17.9806 24.4668 16.0003C24.4668 14.02 23.68 12.1208 22.2798 10.7206C20.8794 9.3203 18.9803 8.53362 17 8.53362ZM3.13337 14.9336C2.99201 14.9316 2.85169 14.9577 2.72051 15.0104C2.58935 15.0632 2.46997 15.1414 2.36931 15.2407C2.26865 15.3399 2.18871 15.4582 2.13415 15.5886C2.07959 15.719 2.05151 15.8589 2.05151 16.0003C2.05151 16.1417 2.07959 16.2816 2.13415 16.412C2.18871 16.5424 2.26865 16.6607 2.36931 16.7599C2.46997 16.8592 2.58935 16.9374 2.72051 16.9901C2.85169 17.0428 2.99201 17.069 3.13337 17.067H6.33337C6.47471 17.069 6.61505 17.0428 6.74621 16.9901C6.87737 16.9374 6.99675 16.8592 7.09741 16.7599C7.19807 16.6607 7.27801 16.5424 7.33257 16.412C7.38713 16.2816 7.41523 16.1417 7.41523 16.0003C7.41523 15.8589 7.38713 15.719 7.33257 15.5886C7.27801 15.4582 7.19807 15.3399 7.09741 15.2407C6.99675 15.1414 6.87737 15.0632 6.74621 15.0104C6.61505 14.9577 6.47471 14.9316 6.33337 14.9336H3.13337ZM27.6668 14.9336C27.5254 14.9316 27.385 14.9577 27.2538 15.0104C27.1226 15.0632 27.0034 15.1414 26.9026 15.2407C26.802 15.3399 26.722 15.4582 26.6674 15.5886C26.613 15.719 26.5848 15.8589 26.5848 16.0003C26.5848 16.1417 26.613 16.2816 26.6674 16.412C26.722 16.5424 26.802 16.6607 26.9026 16.7599C27.0034 16.8592 27.1226 16.9374 27.2538 16.9901C27.385 17.0428 27.5254 17.069 27.6668 17.067H30.8668C31.008 17.069 31.1484 17.0428 31.2796 16.9901C31.4108 16.9374 31.5302 16.8592 31.6308 16.7599C31.7314 16.6607 31.8114 16.5424 31.866 16.412C31.9204 16.2816 31.9486 16.1417 31.9486 16.0003C31.9486 15.8589 31.9204 15.719 31.866 15.5886C31.8114 15.4582 31.7314 15.3399 31.6308 15.2407C31.5302 15.1414 31.4108 15.0632 31.2796 15.0104C31.1484 14.9577 31.008 14.9316 30.8668 14.9336H27.6668ZM9.43753 22.4649C9.16041 22.4731 8.89739 22.5889 8.70419 22.7879L6.44169 25.0503C6.33933 25.1487 6.25759 25.2663 6.20129 25.3967C6.14499 25.5269 6.11525 25.6671 6.11381 25.8089C6.11237 25.9509 6.13925 26.0917 6.19289 26.2231C6.24653 26.3545 6.32585 26.4739 6.42621 26.5741C6.52655 26.6745 6.64591 26.7539 6.77731 26.8075C6.90869 26.8611 7.04947 26.8879 7.19137 26.8865C7.33329 26.8851 7.47347 26.8553 7.60375 26.7991C7.73401 26.7427 7.85175 26.6611 7.95003 26.5587L10.2125 24.2961C10.3667 24.1463 10.472 23.9535 10.5146 23.7427C10.5572 23.5321 10.5352 23.3135 10.4514 23.1155C10.3676 22.9175 10.226 22.7495 10.0451 22.6333C9.86415 22.5173 9.65239 22.4585 9.43753 22.4649ZM24.5312 22.4649C24.319 22.4649 24.1118 22.5283 23.9358 22.6469C23.7598 22.7653 23.623 22.9337 23.5432 23.1303C23.4634 23.3269 23.444 23.5429 23.4874 23.7505C23.531 23.9581 23.6354 24.1481 23.7876 24.2961L26.05 26.5587C26.1484 26.6611 26.266 26.7427 26.3964 26.7991C26.5266 26.8553 26.6668 26.8851 26.8086 26.8865C26.9506 26.8879 27.0914 26.8611 27.2228 26.8075C27.3542 26.7539 27.4736 26.6745 27.5738 26.5741C27.6742 26.4737 27.7536 26.3545 27.8072 26.2231C27.8608 26.0917 27.8876 25.9509 27.8862 25.8089C27.8848 25.6671 27.855 25.5269 27.7988 25.3967C27.7424 25.2663 27.6608 25.1487 27.5584 25.0503L25.2958 22.7879C25.1964 22.6857 25.0776 22.6045 24.9462 22.5489C24.815 22.4935 24.6738 22.4649 24.5312 22.4649ZM16.9834 25.5857C16.7008 25.5901 16.4316 25.7065 16.2347 25.9093C16.0379 26.1119 15.9295 26.3845 15.9334 26.6671V29.8669C15.9314 30.0083 15.9575 30.1487 16.0102 30.2799C16.0629 30.4111 16.1412 30.5303 16.2404 30.6311C16.3396 30.7317 16.4579 30.8117 16.5883 30.8663C16.7187 30.9207 16.8587 30.9489 17 30.9489C17.1414 30.9489 17.2814 30.9207 17.4118 30.8663C17.5422 30.8117 17.6604 30.7317 17.7597 30.6311C17.8589 30.5303 17.9372 30.4111 17.9899 30.2799C18.0426 30.1487 18.0687 30.0083 18.0667 29.8669V26.6671C18.0687 26.5243 18.042 26.3827 17.9882 26.2505C17.9344 26.1183 17.8546 25.9981 17.7536 25.8973C17.6526 25.7965 17.5324 25.7169 17.4001 25.6635C17.2678 25.6099 17.1261 25.5835 16.9834 25.5857Z" fill="#313237"/>
</svg>
