<svg width="60" height="60" viewBox="0 0 60 60" fill="none" xmlns="http://www.w3.org/2000/svg">
<g id="telegram">
<path id="Exclude" d="M29.999 0C46.5679 0 60 13.4326 60 30C59.9998 46.5688 46.5677 60 29.999 60C13.4317 59.9998 0.000210295 46.5687 0 30C0 13.4327 13.4316 0.000195887 29.999 0ZM44.6396 19.0547C44.8982 16.1244 41.8162 17.3053 41.7773 17.3203C41.7773 17.3203 35.0109 20.0964 33.0156 20.9639C27.8241 23.1271 12.8822 29.2594 12.8027 29.292C9.25501 30.6759 11.3173 31.9743 11.3271 31.9805C11.3382 31.9843 14.3683 33.0233 16.9668 33.8027C19.5543 34.5787 20.9417 33.7253 20.957 33.7158C20.957 33.7158 27.03 29.7256 33.1895 25.4746C37.5259 22.5253 36.4853 24.954 35.4443 25.9951C33.1898 28.2512 29.4581 31.8076 26.335 34.6699C24.948 35.8848 25.6411 36.9255 26.249 37.4453C28.5036 39.3537 34.6633 43.2589 35.0107 43.5186C35.4439 43.8658 37.8736 45.4272 39.3477 45.0811C40.8128 44.7357 40.9937 42.7655 40.9961 42.7383C40.9961 42.7383 42.1243 35.6238 43.1641 29.1182C43.8589 24.5196 44.5528 20.2697 44.6396 19.0547Z" fill="black"/>
</g>
</svg>
