<svg width="32" height="32" viewBox="0 0 32 32" fill="none" xmlns="http://www.w3.org/2000/svg">
<g clip-path="url(#clip0_343_20)">
<path d="M15.9766 -0.0195381C16.0402 -0.0194034 16.1038 -0.0192687 16.1693 -0.01913C17.0824 -0.0160255 17.9782 -0.000344485 18.875 0.187493C18.9359 0.19991 18.9968 0.212328 19.0596 0.225121C22.0835 0.85766 24.8328 2.22744 27.0625 4.37499C27.1243 4.43425 27.1243 4.43425 27.1874 4.49471C27.7804 5.06624 28.3266 5.64733 28.8125 6.31249C28.8661 6.38443 28.9198 6.45637 28.9734 6.52831C29.3508 7.04026 29.6857 7.57237 30 8.12499C30.0228 8.16448 30.0456 8.20397 30.069 8.24465C31.4194 10.6039 32.0298 13.2768 32.0195 15.9766C32.0194 16.0402 32.0193 16.1038 32.0191 16.1693C32.016 17.0824 32.0003 17.9782 31.8125 18.875C31.7939 18.9664 31.7939 18.9664 31.7749 19.0596C31.1423 22.0835 29.7725 24.8328 27.625 27.0625C27.5855 27.1037 27.546 27.1449 27.5053 27.1874C26.9337 27.7804 26.3527 28.3266 25.6875 28.8125C25.6156 28.8661 25.5436 28.9198 25.4717 28.9734C24.9598 29.3507 24.4284 29.6872 23.875 30C23.8308 30.0251 23.7866 30.0503 23.7411 30.0762C22.2951 30.8903 20.7219 31.4371 19.0976 31.7695C19.0527 31.7787 19.0078 31.7879 18.9615 31.7974C18.0443 31.9718 17.1364 32.0218 16.2045 32.0197C16.0208 32.0195 15.8372 32.021 15.6534 32.0226C14.8176 32.0254 14.0116 31.95 13.1875 31.8125C13.0809 31.7949 13.0809 31.7949 12.9721 31.7769C10.2679 31.2911 7.70231 30.0419 5.62499 28.25C5.57843 28.2104 5.53186 28.1707 5.48388 28.1299C4.63982 27.3917 3.84786 26.5948 3.18749 25.6875C3.13396 25.6156 3.08041 25.5438 3.02685 25.4719C2.64935 24.96 2.31289 24.4285 1.99999 23.875C1.97486 23.8308 1.94972 23.7866 1.92382 23.7411C1.10973 22.2951 0.56293 20.7219 0.230462 19.0976C0.221252 19.0527 0.212042 19.0078 0.202554 18.9615C0.0166875 17.9836 -0.0233196 17.0165 -0.0195381 16.0234C-0.0194034 15.9598 -0.0192687 15.8962 -0.01913 15.8306C-0.0160255 14.9176 -0.000344485 14.0218 0.187493 13.125C0.19991 13.0641 0.212328 13.0031 0.225121 12.9404C0.85766 9.91649 2.22744 7.16723 4.37499 4.93749C4.4145 4.89628 4.45401 4.85507 4.49471 4.81262C5.06624 4.2196 5.64733 3.67336 6.31249 3.18749C6.38443 3.13386 6.45637 3.08023 6.52831 3.0266C7.04017 2.64926 7.57158 2.31283 8.12499 1.99999C8.16919 1.97486 8.21339 1.94972 8.25893 1.92382C9.7049 1.10973 11.2781 0.56293 12.9023 0.230462C12.9473 0.221252 12.9922 0.212042 13.0385 0.202554C14.0164 0.0166875 14.9835 -0.0233196 15.9766 -0.0195381ZM14.8125 5.24999C14.6979 5.5159 14.6725 5.74585 14.6726 6.03344C14.6716 6.10978 14.6706 6.18611 14.6695 6.26476C14.6685 6.42443 14.6682 6.5841 14.6686 6.74377C14.6591 7.32016 14.6591 7.32016 14.5029 7.57104C14.2525 7.72417 13.9985 7.82374 13.7226 7.92187C12.4907 8.3881 11.5008 9.13355 10.918 10.3437C10.6955 10.8534 10.5318 11.3795 10.5 11.9375C10.496 12.0048 10.4919 12.0722 10.4878 12.1416C10.4546 13.1993 10.7257 14.2165 11.4531 15.0117C11.571 15.135 11.6913 15.2549 11.8125 15.375C11.8607 15.4245 11.9089 15.4741 11.9585 15.5251C12.8326 16.3739 14.0307 16.8287 15.1387 17.2859C15.2046 17.3131 15.2705 17.3403 15.3385 17.3684C15.4654 17.4205 15.5924 17.4723 15.7197 17.5234C16.5068 17.8445 17.3319 18.1984 17.6968 19.0163C17.8317 19.4503 17.8082 19.8584 17.625 20.2734C17.316 20.812 16.8273 21.0192 16.25 21.1875C14.7711 21.57 12.9824 20.9886 11.6687 20.3188C11.4838 20.2434 11.3833 20.2059 11.1875 20.25C10.9865 20.5099 10.8814 20.7562 10.79 21.0701C10.7779 21.1115 10.7658 21.1529 10.7533 21.1956C10.728 21.2827 10.703 21.3698 10.6783 21.457C10.6407 21.5895 10.6018 21.7216 10.5627 21.8536C10.5382 21.9388 10.5137 22.0239 10.4893 22.1091C10.4673 22.1856 10.4453 22.2621 10.4227 22.3409C10.3572 22.6454 10.3133 22.8966 10.4766 23.1702C11.419 24.0739 13.1609 24.2241 14.375 24.4375C14.4309 24.6786 14.4468 24.9051 14.4507 25.1523C14.4524 25.2289 14.4542 25.3054 14.456 25.3843C14.4593 25.5447 14.4621 25.7052 14.4643 25.8657C14.4663 25.9423 14.4682 26.0188 14.4702 26.0976C14.4721 26.2022 14.4721 26.2022 14.474 26.3088C14.5036 26.5261 14.5505 26.6417 14.6875 26.8125C15.0385 27.0096 15.4452 26.9581 15.8359 26.957C15.9113 26.958 15.9868 26.959 16.0644 26.9601C16.6221 26.9616 16.6221 26.9616 17.125 26.75C17.2793 26.5285 17.2668 26.3128 17.2693 26.0491C17.2709 25.9602 17.2724 25.8712 17.274 25.7823C17.2758 25.643 17.2773 25.5037 17.2785 25.3643C17.2799 25.2293 17.2823 25.0943 17.2849 24.9592C17.2857 24.8787 17.2866 24.7981 17.2875 24.7151C17.314 24.4875 17.3623 24.3685 17.5 24.1875C17.6335 24.1177 17.6335 24.1177 17.793 24.0703C18.5601 23.8163 19.2443 23.5149 19.875 23C19.9151 22.9693 19.9552 22.9386 19.9966 22.907C20.8872 22.1981 21.4267 21.1017 21.625 20C21.726 18.6598 21.4642 17.4247 20.6289 16.3476C20.5457 16.2514 20.461 16.1563 20.375 16.0625C20.3335 16.0153 20.292 15.9681 20.2493 15.9194C19.3393 14.9405 17.9867 14.4606 16.7812 13.957C14.7358 13.0999 14.7358 13.0999 14.4297 12.3672C14.3322 11.9357 14.3423 11.575 14.5625 11.1875C14.9004 10.7688 15.3956 10.6059 15.9123 10.529C17.1598 10.4204 18.3639 10.6483 19.4985 11.1706C19.7418 11.2758 19.7418 11.2758 20 11.3125C20.2654 11.1404 20.3609 10.9991 20.448 10.698C20.469 10.6275 20.49 10.5569 20.5116 10.4842C20.5323 10.4108 20.5529 10.3374 20.5742 10.2617C20.5956 10.189 20.617 10.1163 20.639 10.0414C20.6979 9.84038 20.7553 9.639 20.8125 9.43749C20.8377 9.35212 20.8629 9.26676 20.8882 9.18139C20.9484 8.95991 20.9671 8.79083 20.9375 8.56249C20.383 7.89649 19.2544 7.73332 18.4453 7.55859C18.394 7.54748 18.3427 7.53637 18.2899 7.52493C18.1895 7.50346 18.0889 7.48251 17.9883 7.46212C17.6386 7.38856 17.6386 7.38856 17.5 7.24999C17.3999 6.8452 17.4183 6.41279 17.4106 5.99792C17.4085 5.55321 17.4085 5.55321 17.1875 5.18749C16.7877 5.03829 16.3878 5.0416 15.9648 5.04296C15.9022 5.04195 15.8396 5.04095 15.775 5.03991C15.4101 5.03967 15.1245 5.05104 14.8125 5.24999Z" fill="black"/>
</g>
<defs>
<clipPath id="clip0_343_20">
<rect width="32" height="32" fill="white"/>
</clipPath>
</defs>
</svg>
